<?xml version="1.0" encoding="utf-8"?><svg viewBox="0 0 32 24" xmlns="http://www.w3.org/2000/svg" xmlns:xlink="http://www.w3.org/1999/xlink"><style>:root>svg{display:none}:root>svg:target{display:block}</style><svg fill="none" viewBox="0 0 20 12" id="arrow-icon" xmlns="http://www.w3.org/2000/svg"><path d="M20 1.809 10 12 0 1.809 1.775 0 10 8.382 18.225 0 20 1.809Z" fill="#787878"/></svg><svg fill="none" viewBox="0 0 32 20" id="grey-arrow-icon" xmlns="http://www.w3.org/2000/svg"><g clip-path="url(#ba)"><path d="M10.845 20c0-1.06-.994-2.643-2-3.971-1.293-1.715-2.838-3.21-4.61-4.352C2.906 10.821 1.295 10 0 10m0 0c1.296 0 2.908-.821 4.235-1.677 1.772-1.143 3.317-2.639 4.61-4.35 1.006-1.33 2-2.916 2-3.973M0 10h44" stroke="#D6D6D6" stroke-width="2"/></g><defs><clipPath id="ba"><path fill="#fff" transform="rotate(-90 10 10)" d="M0 0h20v32H0z"/></clipPath></defs></svg><svg fill="none" viewBox="0 0 24 24" id="lang-check-icon" xmlns="http://www.w3.org/2000/svg"><path d="M9.595 18 4 12.312l1.399-1.422 4.196 4.266L18.601 6 20 7.422 9.595 18Z" fill="#B51F24"/></svg></svg>