<svg width="105" height="55" viewBox="0 0 105 55" fill="none" xmlns="http://www.w3.org/2000/svg">
<g id="Islas canarias Logo 2" clip-path="url(#clip0_119_1619)">
<g id="Group" opacity="0.25">
<path id="Vector" d="M40 5H38C38.1221 4.96677 38.2298 4.89461 38.3065 4.79467C38.3831 4.69474 38.4245 4.57257 38.4242 4.44701V1.10807C38.4292 0.973357 38.3921 0.840398 38.3178 0.727455C38.2436 0.614513 38.1359 0.527126 38.0095 0.47729C39.087 0.34903 39.6002 0 39.6002 0V4.46278C39.5967 4.58189 39.6341 4.69866 39.7063 4.79394C39.7776 4.89379 39.8813 4.96649 40 5Z" fill="#B51F24"/>
<path id="Vector_2" d="M44 2.18237C44 3.56437 43.5466 5.00105 41.8629 5C41.1517 5 40.7616 4.86959 40.5741 4.56879C40.5156 4.48152 40.4825 4.3824 40.478 4.28061C40.4788 4.22754 40.4907 4.17508 40.5132 4.126C40.565 4.02012 40.6518 3.93106 40.7618 3.87087C40.8718 3.81068 40.9997 3.78226 41.1283 3.78944C41.2081 3.78986 41.2874 3.8023 41.3626 3.82625C41.3076 3.86938 41.2595 4.02924 41.2595 4.20068C41.2595 4.50778 41.3954 4.88221 41.8746 4.88326C42.2578 4.88326 42.553 4.25221 42.594 3.64325C42.3994 3.69962 42.1963 3.72836 41.9918 3.72844C40.8905 3.72844 40 2.89756 40 1.8658C40 0.834034 40.8987 0 42 0C43.1013 0 44.0012 0.733067 44 2.18237ZM42.7006 1.86685C42.7006 1.78692 42.7006 1.7133 42.6936 1.63968C42.6538 0.779347 42.3527 0.11569 41.9977 0.11569C41.6075 0.11569 41.2947 0.901346 41.2947 1.8658C41.2947 2.83025 41.6075 3.61065 41.9977 3.61065C42.3492 3.61065 42.635 2.98485 42.7006 2.15503C42.6936 2.06458 42.7053 1.96571 42.7053 1.8679L42.7006 1.86685Z" fill="#B51F24"/>
<path id="Vector_3" d="M48 3.12895V3.13526C48 4.16702 47.1053 5.00105 46.0087 5C44.8574 5 44.2788 4.64346 44.0747 4.20067C44.0292 4.10328 44.0039 3.99918 44 3.89356C44 3.42658 44.5319 3.1321 45.0429 3.13315H45.6915C45.6915 3.13315 45.317 3.38452 45.3158 3.94931C45.3158 4.00505 45.3228 4.06605 45.3298 4.1281C45.3905 4.60034 45.7649 4.88326 46.0099 4.88431C46.3984 4.88431 46.7262 4.30059 46.7262 3.496C46.7264 3.37518 46.7197 3.25442 46.7063 3.1342C46.6655 2.77135 46.3564 1.70278 45.3858 1.70172C44.9002 1.69902 44.4225 1.8134 44.0023 2.03302V0L46.7822 0.00736299C47.1764 0.00736299 47.4494 0.0389128 47.6326 0.333402C47.6777 0.413338 47.699 0.502512 47.6944 0.592134C47.6949 0.690342 47.6763 0.787873 47.6395 0.880311C47.5878 0.984606 47.502 1.0722 47.3936 1.13139C47.2853 1.19059 47.1594 1.21857 47.033 1.21161C46.9496 1.21223 46.8667 1.19977 46.788 1.1748C46.8432 1.12278 46.8856 1.06088 46.9126 0.993112C46.9395 0.925344 46.9503 0.853229 46.9443 0.781447C46.9443 0.474337 46.7472 0.117795 46.2841 0.117795H45.296V1.59024H46.2841C46.5335 1.5879 46.7804 1.63644 47.0061 1.73222C47.0423 1.74474 47.0767 1.76098 47.1088 1.78061C47.3736 1.91712 47.5947 2.11298 47.7509 2.34921C47.907 2.58544 47.9928 2.85403 48 3.12895Z" fill="#B51F24"/>
<path id="Vector_4" d="M52 2.18178C52 3.56406 51.5464 5.00105 49.8623 5C49.1509 5 48.7606 4.8706 48.5731 4.56974C48.5145 4.48208 48.4815 4.38259 48.477 4.28045C48.4784 4.22778 48.4903 4.17575 48.5122 4.12686C48.564 4.02068 48.6509 3.93135 48.7612 3.87096C48.8714 3.81056 48.9997 3.78202 49.1286 3.78919C49.2085 3.78956 49.2877 3.802 49.363 3.826C49.3079 3.86913 49.2599 4.02903 49.2599 4.20155C49.2599 4.50873 49.3958 4.88323 49.8752 4.88323C50.2584 4.88323 50.5538 4.25731 50.5948 3.64296C50.4003 3.69985 50.1969 3.72861 49.9924 3.72817C48.8907 3.72817 48 2.89817 48 1.86619C48 0.834209 48.8989 -0.00105097 50.0006 9.92581e-07C51.1023 0.00105296 52.0023 0.732168 52 2.18178ZM50.7003 1.86619C50.7003 1.78729 50.7003 1.7126 50.6944 1.63897C50.6534 0.77951 50.3534 0.115715 49.9971 0.115715C49.6068 0.115715 49.2939 0.901535 49.2939 1.86619C49.2939 2.83084 49.608 3.61035 49.9971 3.61035C50.3487 3.61035 50.6346 2.97917 50.7003 2.15548C50.6932 2.06396 50.7003 1.96613 50.7003 1.86724V1.86619Z" fill="#B51F24"/>
</g>
<g id="Group_2" opacity="0.25">
<path id="Vector_5" d="M15.4253 41.5987C16.1435 41.6008 16.839 41.3564 17.3876 40.9093C17.9362 40.4622 18.302 39.8414 18.4197 39.158V42L13.3713 41.9926C8.21452 41.9852 4.99235 38.1558 5.00001 33.4741C5.00768 28.7925 8.61305 24.9937 12.4889 25C14.1136 25 15.1319 25.0877 16.1019 25.3813C18.1591 26.0329 19.0022 27.3878 19 28.7301C18.9896 29.611 18.6318 30.455 17.9993 31.0905C17.2614 31.8002 16.1128 32.153 14.9205 32.1466C14.3258 32.1392 13.7355 32.047 13.1688 31.8731L13.2553 31.8308C14.4049 31.457 15.0355 29.9299 15.0377 28.4693C15.0377 26.8851 14.3271 25.3749 12.7462 25.3718C10.471 25.3718 9.12107 29.0037 9.1145 33.4762C9.10684 37.9699 11.6798 41.5892 14.9293 41.5945L15.4253 41.5987Z" fill="#B51F24"/>
<path id="Vector_6" d="M53 46.7158C53 48.4681 50.9495 50.0043 48.1426 50H48.0128C44.8145 50 42.0757 47.5757 42.0812 44.3899L42.1208 33.336C42.1208 32.3108 41.7766 30.4289 40.2759 30.4051H40.2319C39.1874 30.4051 38.3628 31.3212 38.3628 32.3497L38.3496 41.0085C38.3417 41.4259 38.4795 41.8334 38.7399 42.1633C38.988 42.5026 39.3495 42.7454 39.7613 42.8493L32.7247 42.8375C33.15 42.7245 33.5256 42.4771 33.7935 42.1334C34.0614 41.7897 34.2066 41.369 34.2068 40.9361L34.2156 35.3357L31.4054 37.7891C31.2844 37.8935 31.187 38.0214 31.1192 38.1648C31.0514 38.3082 31.0148 38.464 31.0117 38.622V40.9988C31.013 41.4193 31.1529 41.8281 31.4106 42.1639C31.6683 42.4997 32.0299 42.7444 32.441 42.8612L27.8717 42.8547C27.6113 42.8531 27.3616 42.7529 27.1746 42.5749C26.988 42.3849 26.8802 42.1334 26.8722 41.8695C26.6623 42.173 26.3795 42.4211 26.049 42.5919C25.7185 42.7628 25.3502 42.8512 24.9768 42.8493H22.8009C22.2994 42.8475 21.8032 42.7485 21.3407 42.5581C20.8782 42.3677 20.4584 42.0895 20.1054 41.7395C19.7524 41.3896 19.4731 40.9746 19.2834 40.5185C19.0937 40.0623 18.9974 39.5739 19.0001 39.0812V37.2641C18.9995 36.7723 19.0978 36.2853 19.2894 35.831C19.481 35.3768 19.7622 34.9642 20.1166 34.617C20.471 34.2699 20.8918 33.995 21.3548 33.8081C21.8177 33.6213 22.3136 33.5262 22.8141 33.5283H24.99C25.3607 33.5287 25.726 33.6165 26.0551 33.7844C26.3842 33.9523 26.6674 34.1953 26.881 34.4931V32.2482C26.8791 31.9066 26.781 31.5722 26.5976 31.282C26.4142 30.9918 26.1527 30.7572 25.8419 30.6041C25.5312 30.451 25.1834 30.3853 24.837 30.4145C24.4906 30.4436 24.1592 30.5664 23.8795 30.7692C23.7452 30.8678 23.6332 30.9928 23.5507 31.1362C23.4682 31.2795 23.4169 31.4382 23.4001 31.6021V31.6443C23.4001 32.2438 23.9422 32.6079 23.9422 32.6079H22.3765C22.3765 32.6079 20.5261 32.6079 20.5283 31.4282C20.5283 30.2312 22.271 29.9989 22.8372 30H26.7315C27.8684 30.002 28.9579 30.4475 29.7605 31.2386C30.5631 32.0297 31.0132 33.1016 31.0117 34.2187V36.8266L29.5286 38.8792L31.0106 37.5828L34.2134 34.8085V32.5636C34.1988 32.194 34.0444 31.843 33.7802 31.5794C33.6464 31.4474 33.4869 31.3432 33.3112 31.2731C33.1355 31.2029 32.9473 31.1682 32.7577 31.1711L38.3518 30.0043V31.009C38.5632 30.7005 38.8486 30.4479 39.1827 30.2732C39.5169 30.0986 39.8897 30.0074 40.2682 30.0076H41.814C42.3955 30.0095 42.971 30.1241 43.5074 30.3448C44.0438 30.5654 44.5307 30.8877 44.9403 31.2934C45.3498 31.699 45.674 32.18 45.8943 32.7088C46.1146 33.2376 46.2266 33.8039 46.224 34.3753L46.202 47.8664C46.202 48.3248 46.3873 48.7644 46.7172 49.0886C47.0471 49.4128 47.4946 49.5949 47.9611 49.5949C49.2662 49.5949 50.0292 48.5081 50.0314 47.5671C50.035 47.4808 50.0276 47.3945 50.0095 47.31C49.6444 44.5519 47.8171 44.2926 47.8171 44.2926C48.5097 44.0518 49.2375 43.923 49.9721 43.9113C51.2123 43.9113 52.5822 44.364 52.9483 46.2675C52.977 46.4154 52.9943 46.5653 53 46.7158ZM26.8865 35.7722C26.8879 35.5306 26.8404 35.2912 26.7469 35.0678C26.6535 34.8444 26.5158 34.6415 26.342 34.4707C26.1682 34.2999 25.9616 34.1646 25.7343 34.0728C25.5069 33.9809 25.2633 33.9343 25.0174 33.9356C23.6464 33.9356 23.1231 35.1726 23.1209 36.2043V40.0535C23.1209 41.0787 23.6607 42.4485 25.0097 42.4507C25.2557 42.4514 25.4993 42.4044 25.7267 42.3125C25.9541 42.2205 26.1608 42.0853 26.335 41.9147C26.5091 41.7441 26.6473 41.5414 26.7415 41.3182C26.8358 41.095 26.8843 40.8558 26.8843 40.6142L26.8865 35.7722Z" fill="#B51F24"/>
<path id="Vector_7" d="M65.7339 44.0945C68.6335 44.0945 72.0055 45.8523 72 49.3892C72.0001 49.6852 71.9778 49.9807 71.9333 50.2734C71.3429 54.1902 67.1224 55.0042 64.2666 55C63.0332 55 62.0383 54.8489 61.7135 54.7223C60.6322 54.2966 56.6753 52.7782 55.4485 48.3113C55.4485 48.3113 54.845 46.8578 54.8504 43.8423V41.694C54.6389 41.9951 54.3544 42.2409 54.0219 42.4094C53.6895 42.5779 53.3195 42.6641 52.9447 42.6601H50.8028C49.793 42.6573 48.8256 42.2649 48.1128 41.5689C47.3999 40.873 46.9997 39.9303 47 38.9476V37.1792C46.9997 36.6922 47.0982 36.21 47.2899 35.7602C47.4816 35.3103 47.7627 34.9018 48.117 34.5579C48.4714 34.2141 48.892 33.9417 49.3547 33.7565C49.8175 33.5712 50.3133 33.4767 50.8137 33.4784H52.9556C53.3279 33.4766 53.6952 33.5621 54.0263 33.7277C54.3575 33.8933 54.6428 34.1341 54.8581 34.4297V32.2186C54.854 31.7388 54.6611 31.2787 54.319 30.9332C54.1427 30.7628 53.9335 30.6281 53.7035 30.5368C53.4734 30.4455 53.227 30.3994 52.9786 30.4011C52.5799 30.3969 52.1913 30.5224 51.8743 30.7576C51.5922 30.9704 51.3976 31.2418 51.3965 31.578V31.6418C51.3965 32.2313 51.9147 32.5686 51.9147 32.5686H50.384C50.384 32.5686 48.5253 32.5686 48.5253 31.4077C48.5253 30.2277 50.2812 29.9989 50.8213 30L54.6952 30.0064C55.8275 30.0058 56.9138 30.4424 57.7157 31.2204C58.5176 31.9984 58.9696 33.0543 58.9724 34.1562L58.9549 48.7848C58.9549 48.7848 59.0315 54.5541 64.506 54.5627C67.3619 54.5627 68.7931 52.6314 68.7964 50.7789C68.7964 49.4946 68.1087 48.272 66.7463 47.7431C66.3381 47.5927 65.9057 47.5138 65.4693 47.5101C64.8399 47.5042 64.2227 47.6789 63.6947 48.0123C63.066 48.3901 62.503 49.0423 62.5008 50.117C62.5141 50.5764 62.6011 51.0309 62.7588 51.4641C62.7588 51.4641 60.9864 50.283 60.9886 48.3039C60.9886 47.4824 61.2948 46.5344 62.141 45.4618C62.8736 44.5531 64.237 44.0924 65.7339 44.0945ZM54.8592 35.697C54.8592 35.4577 54.8104 35.2208 54.7157 35C54.621 34.7792 54.4822 34.5789 54.3074 34.4107C54.1326 34.2424 53.9253 34.1096 53.6974 34.0199C53.4694 33.9302 53.2255 33.8854 52.9797 33.8881C51.6173 33.8881 51.1209 35.1064 51.1155 36.1226V39.934C51.1155 40.9236 51.6304 42.2749 52.9742 42.2749C53.4702 42.2767 53.9468 42.0875 54.3002 41.7486C54.6535 41.4098 54.8548 40.9487 54.8603 40.466L54.8592 35.697Z" fill="#B51F24"/>
<path id="Vector_8" d="M73 28.3376C72.5719 28.1638 72.1136 28.0821 71.6534 28.0977C69.0879 28.0977 65.4457 30.1813 65.4404 34.1304L65.4298 41.1203C65.4351 41.546 65.5663 41.9601 65.806 42.3077C66.0537 42.6417 66.4 42.8845 66.7933 43L60 42.9891C60.4117 42.8763 60.7754 42.6271 61.0347 42.2803C61.294 41.9334 61.4343 41.5084 61.4337 41.0713L61.4464 32.6127C61.4477 32.4284 61.4131 32.2458 61.3447 32.0754C61.2763 31.905 61.1753 31.7504 61.0479 31.6205C60.7872 31.348 60.4327 31.1914 60.0606 31.1844L65.4457 30.0276V31.5813C66.0175 29.5326 67.0112 25.9956 70.0157 26C72.5185 26.0065 73 28.3376 73 28.3376Z" fill="#B51F24"/>
<path id="Vector_9" d="M72 41.9894C72.4182 41.8802 72.7873 41.6411 73.0504 41.3093C73.3135 40.9774 73.4558 40.5712 73.4554 40.1536L73.4685 31.9634C73.461 31.5946 73.306 31.2428 73.0358 30.9816C72.7656 30.7203 72.4012 30.5698 72.0186 30.5615L77.5687 29.4413L77.5512 40.1599C77.5506 40.5765 77.6948 40.9812 77.9607 41.3096C78.2193 41.6433 78.5844 41.8859 79 42L72 41.9894ZM73.4762 26.971C73.4767 26.7117 73.53 26.4551 73.6334 26.2158C73.7367 25.9764 73.8879 25.759 74.0783 25.576C74.2688 25.393 74.4948 25.2479 74.7434 25.1491C74.9921 25.0502 75.2584 24.9996 75.5274 25C75.7963 25.0004 76.0625 25.0519 76.3108 25.1515C76.5591 25.2511 76.7846 25.3968 76.9745 25.5805C77.1643 25.7641 77.3148 25.9819 77.4173 26.2216C77.5199 26.4613 77.5724 26.7181 77.572 26.9773C77.5715 27.2366 77.5181 27.4932 77.4148 27.7326C77.3115 27.9719 77.1603 28.1893 76.9698 28.3724C76.7794 28.5554 76.5534 28.7004 76.3048 28.7993C76.0561 28.8981 75.7897 28.9487 75.5208 28.9483C75.2519 28.9479 74.9857 28.8964 74.7374 28.7969C74.4891 28.6973 74.2636 28.5515 74.0737 28.3679C73.8839 28.1843 73.7334 27.9664 73.6308 27.7267C73.5283 27.487 73.4758 27.2303 73.4762 26.971Z" fill="#B51F24"/>
<path id="Vector_10" d="M87.5869 43C87.4607 42.9997 87.3358 42.9737 87.2195 42.9233C87.1033 42.8729 86.998 42.7992 86.9098 42.7066C86.8216 42.6139 86.7523 42.5041 86.7059 42.3837C86.6595 42.2632 86.637 42.1345 86.6397 42.005C86.4322 42.3123 86.1549 42.5632 85.8317 42.7358C85.5085 42.9084 85.1492 42.9976 84.7849 42.9956H82.7002C81.7177 42.9927 80.7764 42.59 80.0827 41.8759C79.3891 41.1617 78.9997 40.1943 79 39.1858V37.3705C78.9997 36.8706 79.0956 36.3755 79.2823 35.9136C79.4689 35.4518 79.7426 35.0324 80.0876 34.6794C80.4325 34.3265 80.8421 34.0469 81.2926 33.8568C81.7431 33.6667 82.2258 33.5698 82.7129 33.5717H84.7976C85.1595 33.5719 85.5162 33.6604 85.8382 33.83C86.1601 33.9996 86.4382 34.2454 86.6493 34.5471V32.2773C86.6487 32.0313 86.6002 31.7878 86.5066 31.5612C86.4131 31.3346 86.2763 31.1295 86.1045 30.9579C85.9382 30.7815 85.7384 30.642 85.5174 30.5481C85.2965 30.4541 85.0591 30.4078 84.82 30.4118C84.4261 30.4097 84.0421 30.538 83.725 30.7777C83.5948 30.8773 83.4862 31.0036 83.4061 31.1486C83.3261 31.2935 83.2763 31.454 83.2599 31.6198V31.6624C83.2599 32.2894 83.7845 32.6367 83.7845 32.6367H82.2692C82.2692 32.6367 80.4781 32.6367 80.4803 31.444C80.4803 30.2337 82.167 29.9989 82.715 30H86.4844C87.029 30.0001 87.5683 30.1105 88.0713 30.3247C88.5744 30.5389 89.0314 30.8528 89.4161 31.2485C89.8009 31.6441 90.1059 32.1137 90.3137 32.6304C90.5215 33.1471 90.6281 33.7008 90.6272 34.2598L90.6166 41.1115C90.6178 41.5367 90.7532 41.9501 91.0027 42.2896C91.2521 42.6291 91.602 42.8764 92 42.9945L87.5869 43ZM86.6419 40.7292L86.6493 35.8446C86.6485 35.5993 86.6004 35.3565 86.508 35.1303C86.4155 34.904 86.2804 34.6988 86.1104 34.5262C85.9405 34.3537 85.739 34.2173 85.5175 34.125C85.2961 34.0326 85.059 33.9859 84.82 33.9878C83.493 33.9878 83.0109 35.2603 83.0109 36.2761L83.0045 40.1885C83.0045 41.2043 83.5068 42.5915 84.8136 42.5915C85.2971 42.5921 85.7612 42.3962 86.1044 42.0466C86.4476 41.697 86.642 41.2222 86.6451 40.7259L86.6419 40.7292Z" fill="#B51F24"/>
<path id="Vector_11" d="M105 40.0184C105 42.6331 103.673 45.3305 102.071 46.5401C100.816 47.4951 99.1058 48.0021 97.42 48C94.6734 48 92.0601 46.6314 92 43.7825V43.6547C92 40.3804 95.0973 39.9819 96.6542 39.984C96.9432 39.9829 97.2321 39.9976 97.5194 40.0281C96.5449 40.4513 95.2896 41.6824 95.2874 43.2508V43.3775C95.3497 45.3767 96.7732 47.2706 98.7627 47.2738C101.292 47.2738 102.96 45.2822 102.965 42.5181C102.964 42.1913 102.943 41.8648 102.901 41.5406C102.559 39.0698 98.9944 37.8774 98.9681 37.8774C98.9419 37.8774 96.6334 37.018 96.6334 37.018L95.4884 36.5883C93.9108 36.0329 93.2641 35.0758 93.0062 34.2454C92.9261 33.9836 92.8892 33.7109 92.897 33.4376C92.9011 32.7781 93.1218 32.1375 93.5263 31.6114C93.9243 31.1101 94.4331 30.7045 95.0143 30.4253C95.5954 30.1461 96.2335 30.0007 96.8803 30L103.475 30.0097V32.9015C103.359 32.2062 102.997 31.5738 102.451 31.1172C101.905 30.6607 101.212 30.4098 100.495 30.4093H98.506C98.145 30.4097 97.7918 30.5127 97.4889 30.7058C97.2975 30.8224 97.1394 30.9849 97.0295 31.1781C96.9197 31.3713 96.8615 31.5888 96.8607 31.8101C96.8612 32.1078 96.9574 32.3978 97.1356 32.6386C97.3137 32.8793 97.5647 33.0586 97.8527 33.1508L97.8745 33.1722L101.419 34.4323C101.815 34.5886 102.192 34.7886 102.542 35.0285C104.314 36.2542 105.003 38.1266 105 40.0184Z" fill="#B51F24"/>
</g>
<path id="Vector_12" opacity="0.25" d="M7.0011 24.1118C17.6578 23.2718 28.7937 23.0828 39.4978 23C50.2085 23.0099 61.3301 23.1235 72 23.8882C61.3433 24.7332 50.2085 24.9209 39.5033 25C28.7915 24.9876 17.6699 24.8765 7 24.1118H7.0011Z" fill="#B51F24"/>
<path id="Vector_13" d="M40 5H38C38.1218 4.9665 38.2292 4.89442 38.3057 4.79476C38.3823 4.69511 38.4239 4.57335 38.4242 4.44807V1.10807C38.4294 0.973326 38.3923 0.8403 38.318 0.727327C38.2438 0.614354 38.136 0.526996 38.0095 0.47729C39.087 0.34903 39.6002 0 39.6002 0V4.46279C39.5964 4.58225 39.6338 4.69943 39.7063 4.79499C39.7782 4.89409 39.8816 4.96631 40 5Z" fill="#B51F24"/>
<path id="Vector_14" d="M44 2.18178C44 3.56406 43.5453 5.00105 41.8623 5C41.1497 5 40.7595 4.8706 40.5731 4.56869C40.5147 4.4814 40.482 4.38221 40.4782 4.28045C40.4787 4.2278 40.4902 4.1757 40.5122 4.12687C40.564 4.02068 40.6509 3.93135 40.7612 3.87096C40.8715 3.81056 40.9997 3.78202 41.1286 3.78919C41.2085 3.78956 41.2877 3.802 41.363 3.826C41.3079 3.86913 41.2599 4.02903 41.2599 4.20155C41.2599 4.50873 41.3958 4.88323 41.8752 4.88323C42.2584 4.88323 42.5538 4.25205 42.5948 3.64296C42.4003 3.69985 42.1969 3.72861 41.9924 3.72817C40.8907 3.72817 40 2.89817 40 1.86619C40 0.834209 40.8977 -0.00105097 41.9994 9.92581e-07C43.1011 0.00105296 44.0012 0.732168 44 2.18178ZM42.6991 1.86619C42.6991 1.78624 42.6991 1.7126 42.6932 1.63897C42.6522 0.77951 42.3522 0.115721 41.9959 0.115721C41.6056 0.115721 41.2927 0.90154 41.2927 1.86514C41.2927 2.82874 41.6068 3.61035 41.9959 3.61035C42.3475 3.61035 42.6323 2.97917 42.6991 2.15548C42.6921 2.06396 42.705 1.96613 42.705 1.86724L42.6991 1.86619Z" fill="#B51F24"/>
<path id="Vector_15" d="M48 3.12763V3.13499C48 4.16632 47.1053 5.00105 46.0088 5C44.8574 5 44.2788 4.64256 44.0747 4.20101C44.029 4.10332 44.0037 3.99891 44 3.89298C44 3.42725 44.5319 3.13288 45.0429 3.13288H45.6926C45.6926 3.13288 45.3182 3.3852 45.317 3.94975C45.317 4.00442 45.324 4.06644 45.331 4.12742C45.3917 4.60051 45.7661 4.88331 46.0111 4.88331C46.3995 4.88331 46.7273 4.30088 46.7285 3.49664C46.7283 3.37549 46.7213 3.25444 46.7075 3.13394C46.6667 2.77229 46.3575 1.70311 45.387 1.70311C44.9017 1.69967 44.4244 1.81367 44.0047 2.03322V0L46.7845 0.00841223C47.1788 0.00841223 47.4517 0.0388975 47.636 0.334314C47.6802 0.414142 47.7011 0.50278 47.6967 0.591884C47.6974 0.690404 47.6788 0.788261 47.6419 0.880993C47.5899 0.985061 47.504 1.07245 47.3957 1.13158C47.2874 1.19072 47.1617 1.21881 47.0353 1.21216C46.9518 1.21295 46.8688 1.20012 46.7903 1.1743C46.8454 1.12247 46.8878 1.06078 46.9147 0.99322C46.9417 0.925664 46.9525 0.853756 46.9466 0.78217C46.9466 0.475189 46.7495 0.118798 46.2864 0.118798H45.2995V1.59062H46.2864C46.5359 1.58806 46.7828 1.63659 47.0085 1.73255C47.0447 1.74541 47.0791 1.762 47.1111 1.78196C47.3752 1.91842 47.5957 2.11396 47.7515 2.34969C47.9072 2.58542 47.9928 2.85337 48 3.12763Z" fill="#B51F24"/>
<path id="Vector_16" d="M52 2.18237C52 3.56437 51.5451 5.00105 49.8617 5C49.1489 5 48.7597 4.86959 48.5721 4.56879C48.5142 4.48093 48.4816 4.38154 48.4771 4.27956C48.4777 4.22691 48.4892 4.17482 48.5111 4.126C48.5633 4.02012 48.6504 3.93112 48.7606 3.87096C48.8709 3.81079 48.999 3.78235 49.1278 3.78944C49.2077 3.78982 49.287 3.80226 49.3622 3.82625C49.3072 3.86937 49.2591 4.02924 49.2591 4.20067C49.2591 4.50778 49.3963 4.88221 49.8746 4.88326C50.2579 4.88326 50.5533 4.25221 50.5955 3.64325C50.4008 3.69953 50.1975 3.72828 49.993 3.72844C48.8898 3.72844 48 2.89756 48 1.8658C48 0.834035 48.898 -0.00105075 50 9.92374e-07C51.102 0.00105274 52.0012 0.728861 52 2.18237ZM50.6987 1.86685C50.6987 1.78692 50.6987 1.7133 50.6987 1.63968C50.6577 0.779348 50.3576 0.11569 49.9953 0.11569C49.6049 0.11569 49.2919 0.901346 49.2919 1.8658C49.2919 2.83025 49.6061 3.61065 49.9953 3.61065C50.347 3.61065 50.6319 2.98486 50.6987 2.15503C50.6917 2.06142 50.6987 1.96256 50.6987 1.86685Z" fill="#B51F24"/>
<g id="Group_3" opacity="0.4">
<path id="Vector_17" d="M13 3.02681C12.5885 3.14606 12.2263 3.40027 11.9687 3.75063C11.7111 4.101 11.5723 4.52827 11.5734 4.96723L11.5277 19.0506C11.5239 19.4895 11.6602 19.9176 11.9156 20.2696C12.171 20.6216 12.5316 20.8781 12.9423 21L5.98675 20.9765C6.4025 20.8616 6.76979 20.6093 7.03179 20.2585C7.2938 19.9077 7.43593 19.4781 7.43619 19.0361L7.4808 4.93148C7.4808 4.09141 6.7539 3.42562 5.9356 3.42338H5.46225C4.79411 3.42338 4.25547 3.55297 3.69397 3.97077C3.06828 4.4556 2.72115 5.19959 2.63301 6.0229C2.61474 6.18417 2.60675 6.3465 2.60907 6.50884C2.59928 9.8032 5.84855 10.5438 5.84855 10.5438C5.26598 11.0705 4.51133 11.3521 3.73532 11.3325C1.94746 11.3325 -0.0068905 9.94954 0.00072669 7.47291C-0.00252066 7.31801 0.00511872 7.16308 0.0235806 7.00931C0.223804 5.08676 1.2815 4.07354 2.29568 3.54627C2.91675 3.23546 3.59019 3.05001 4.27941 3L13 3.02681Z" fill="#B51F24"/>
<path id="Vector_18" d="M24 16.6503C23.9974 17.0738 23.9404 17.4949 23.8303 17.9026C23.5826 18.7948 23.0638 19.579 22.3519 20.1376C21.64 20.6961 20.7733 20.9988 19.8822 21L13.4756 20.9782L13.485 18.0401C13.5929 18.7431 13.9361 19.3836 14.4538 19.8481C14.9715 20.3125 15.6303 20.5709 16.3133 20.5775H17.1629C18.9049 20.584 20.1116 19.2051 20.1148 18.1897V17.9954C20.12 16.3326 18.3602 15.7856 18.3602 15.7856L16.5794 15.1305L15.4816 14.6938C13.97 14.1272 13.3509 13.1522 13.1058 12.3093C13.0286 12.043 12.9932 11.7653 13.0011 11.4872C13.006 10.8164 13.2191 10.1652 13.6086 9.63115C13.9906 9.12204 14.4791 8.71049 15.0367 8.42783C15.5943 8.14517 16.2065 7.99885 16.8266 8.00001L23.1494 8.02184L23.14 10.961C23.0357 10.2562 22.6936 9.61327 22.1751 9.14794C21.6567 8.68261 20.9959 8.42538 20.3117 8.42253L18.3843 8.41598C18.0478 8.41544 17.7176 8.51137 17.43 8.69329C17.2439 8.81451 17.0907 8.98323 16.9847 9.18347C16.8788 9.38371 16.8236 9.60883 16.8245 9.8375C16.8209 10.1381 16.9089 10.4321 17.0759 10.6771C17.2429 10.9222 17.4802 11.1057 17.7537 11.2011L17.7746 11.223L21.1696 12.5091C22.2255 12.924 23.1358 13.7265 23.6093 14.7866C23.8651 15.3718 23.9983 16.0072 24 16.6503Z" fill="#B51F24"/>
<path id="Vector_19" d="M25.0929 4.62093C24.822 4.34819 24.4562 4.19597 24.0756 4.19755L29.6278 3L29.5982 19.0719C29.5898 19.5034 29.7258 19.925 29.9837 20.2672C30.2286 20.6247 30.588 20.8838 31 21L24 20.9765C24.4223 20.8579 24.7953 20.6021 25.0624 20.248C25.3295 19.8939 25.4763 19.4606 25.4806 19.0138L25.5255 5.6833C25.521 5.28553 25.366 4.90492 25.0929 4.62093Z" fill="#B51F24"/>
<path id="Vector_20" d="M56 16.6485C55.9974 17.0724 55.9404 17.494 55.8303 17.9021C55.5825 18.7944 55.0636 19.5788 54.3514 20.1374C53.6392 20.6961 52.7723 20.9988 51.881 21L45.4725 20.9782L45.4819 18.0386C45.59 18.7417 45.9333 19.3823 46.4511 19.847C46.9689 20.3116 47.6277 20.5704 48.311 20.5774H49.1608C50.9075 20.5905 52.1146 19.207 52.123 18.1882V17.9938C52.123 16.3318 50.3627 15.7858 50.3627 15.7858L48.5814 15.1306L47.4832 14.6938C45.9712 14.1271 45.352 13.153 45.1057 12.3089C45.029 12.0428 44.9936 11.7656 45.0009 11.4878C45.0061 10.8171 45.2188 10.166 45.6076 9.63142C45.9903 9.12263 46.4792 8.71131 47.037 8.42865C47.5949 8.14599 48.2073 7.9994 48.8276 8L55.1523 8.02184L55.1429 10.9614C55.0388 10.2565 54.6965 9.61355 54.1779 9.14828C53.6592 8.68301 52.9981 8.42606 52.3137 8.42369L50.3857 8.41714C50.049 8.4154 49.7185 8.51144 49.4312 8.6945C49.2451 8.81556 49.0919 8.98411 48.9859 9.1842C48.8799 9.38428 48.8247 9.60926 48.8255 9.8378C48.8233 10.1378 48.9119 10.4309 49.0788 10.6754C49.2457 10.9198 49.4823 11.1033 49.7549 11.1995L49.7759 11.2202L53.1709 12.5099C54.2271 12.9237 55.1376 13.7263 55.6113 14.7866C55.8661 15.3715 55.9986 16.0062 56 16.6485Z" fill="#B51F24"/>
<path id="Vector_21" d="M40.3194 20.8071C40.1859 20.8119 40.0527 20.7911 39.9277 20.7459C39.8026 20.7007 39.6882 20.6321 39.5912 20.544C39.4941 20.456 39.4163 20.3502 39.3624 20.233C39.3084 20.1157 39.2793 19.9893 39.2769 19.8612C39.0698 20.1733 38.7867 20.4324 38.4519 20.616C38.1171 20.7997 37.7407 20.9024 37.3553 20.9153L35.1485 20.9974C34.1086 21.0343 33.0958 20.6741 32.3323 19.9957C31.5688 19.3174 31.1168 18.3764 31.0754 17.3789L31.0033 15.5842C30.9822 15.0898 31.0631 14.5962 31.2414 14.1319C31.4197 13.6676 31.6918 13.2416 32.0422 12.8784C32.3926 12.5153 32.8144 12.2221 33.2832 12.0157C33.7521 11.8094 34.2588 11.6939 34.7744 11.676L36.9811 11.5938C37.3639 11.5795 37.7448 11.6526 38.0924 11.8071C38.44 11.9616 38.7443 12.1931 38.9805 12.4825L38.8903 10.2381C38.8795 9.99462 38.818 9.75572 38.7097 9.53535C38.6013 9.31499 38.4481 9.1176 38.2592 8.95476C38.0757 8.78768 37.8583 8.65857 37.6206 8.57544C37.3829 8.4923 37.13 8.45693 36.8774 8.4715C36.4607 8.4856 36.0597 8.62772 35.7335 8.87692C35.601 8.98131 35.4926 9.11091 35.415 9.25755C35.3374 9.40418 35.2923 9.56467 35.2827 9.72885V9.77209C35.3075 10.3916 35.8789 10.7138 35.8789 10.7138L34.274 10.7732C34.274 10.7732 32.3771 10.8457 32.3276 9.67155C32.2791 8.47366 34.0531 8.17311 34.6324 8.15148L38.6221 8.00337C39.1986 7.98122 39.7741 8.06839 40.3155 8.25987C40.8569 8.45136 41.3536 8.74341 41.7772 9.1193C42.2007 9.49519 42.5429 9.94753 42.7839 10.4504C43.025 10.9533 43.1603 11.4969 43.1821 12.05L43.4548 18.8276C43.4735 19.2488 43.6343 19.6528 43.9129 19.9788C44.1916 20.3048 44.5731 20.5352 45 20.6352L40.3194 20.8071ZM39.2262 18.5995L39.0323 13.7679C39.0218 13.5249 38.9612 13.2863 38.8542 13.0657C38.7472 12.8452 38.5959 12.6471 38.4088 12.4828C38.2218 12.3186 38.0028 12.1914 37.7643 12.1086C37.5259 12.0258 37.2727 11.989 37.0194 12.0003C35.6151 12.0522 35.153 13.3333 35.1936 14.3377L35.3492 18.2081C35.3897 19.2125 35.9792 20.5607 37.3609 20.5098C37.8714 20.4918 38.3539 20.281 38.7032 19.9235C39.0525 19.5659 39.2405 19.0904 39.2262 18.6006V18.5995Z" fill="#B51F24"/>
</g>
<path id="Vector_22" d="M14.4253 40.5987C15.1435 40.6003 15.839 40.3557 16.3875 39.9085C16.936 39.4612 17.3018 38.8405 17.4197 38.1572V41L12.3713 40.9916C7.21452 40.9842 3.99235 37.155 4.00001 32.4736C4.00768 27.7922 7.61305 23.9947 11.4889 24C13.1136 24 14.1319 24.0877 15.1019 24.3812C17.1591 25.0328 18.0022 26.3877 18 27.7299C17.9896 28.6107 17.6318 29.4547 16.9993 30.0901C16.2614 30.7998 15.1128 31.1525 13.9205 31.1462C13.3258 31.1379 12.7356 31.0454 12.1688 30.8716L12.2553 30.8294C13.4049 30.4555 14.0355 28.9285 14.0377 27.468C14.0377 25.884 13.3271 24.3738 11.7462 24.3707C9.47103 24.3707 8.12106 28.0024 8.1145 32.4747C8.10683 36.9681 10.6798 40.5871 13.9293 40.5924L14.4253 40.5987Z" fill="#B51F24"/>
<path id="Vector_23" d="M52 45.7151C52 47.4688 49.949 49.0043 47.1415 49H47.0117C43.8126 49 41.0732 46.5752 41.0787 43.3887L41.1183 32.3335C41.1183 31.307 40.7741 29.4247 39.273 29.4009H39.229C38.1843 29.4009 37.3595 30.3172 37.3595 31.3459L37.3463 40.0065C37.3384 40.4241 37.4762 40.8317 37.7367 41.1616C37.9848 41.501 38.3464 41.7439 38.7583 41.8478L31.7289 41.837C32.1541 41.724 32.5297 41.4767 32.7976 41.1332C33.0655 40.7897 33.2109 40.3691 33.2113 39.9363L33.2201 34.3336L30.4082 36.7897C30.2872 36.8941 30.1897 37.0221 30.1219 37.1655C30.0542 37.3089 30.0176 37.4647 30.0145 37.6228V40C30.0157 40.4207 30.1557 40.8296 30.4134 41.1655C30.6712 41.5014 31.0328 41.7461 31.4441 41.8629L26.8737 41.8564C26.6133 41.8548 26.3635 41.7546 26.1764 41.5766C25.9898 41.3866 25.882 41.135 25.874 40.871C25.6639 41.1745 25.3811 41.4227 25.0506 41.5938C24.72 41.7649 24.3517 41.8536 23.9781 41.8521H21.8018C21.3002 41.8503 20.8039 41.7513 20.3413 41.5608C19.8786 41.3704 19.4588 41.0921 19.1057 40.7421C18.7526 40.392 18.4732 39.977 18.2835 39.5208C18.0938 39.0645 17.9974 38.576 18.0001 38.0831V36.2657C17.9995 35.7738 18.0978 35.2867 18.2895 34.8323C18.4812 34.3779 18.7623 33.9653 19.1169 33.618C19.4714 33.2708 19.8922 32.9958 20.3553 32.8089C20.8183 32.6221 21.3144 32.527 21.815 32.5291H23.9913C24.3623 32.5295 24.7277 32.6175 25.0569 32.7856C25.3861 32.9537 25.6693 33.197 25.8828 33.4951V31.2497C25.8811 30.908 25.7831 30.5734 25.5998 30.283C25.4164 29.9926 25.1548 29.7577 24.844 29.6045C24.5331 29.4512 24.1851 29.3854 23.8386 29.4146C23.492 29.4437 23.1605 29.5665 22.8806 29.7694C22.7463 29.868 22.6343 29.993 22.5517 30.1364C22.4692 30.2798 22.4179 30.4385 22.4011 30.6025V30.6446C22.4011 31.2443 22.9433 31.6085 22.9433 31.6085H21.3773C21.3773 31.6085 19.5265 31.6085 19.5287 30.4296C19.5287 29.2312 21.2717 28.9989 21.8381 29L25.7333 29.0054C26.8704 29.0074 27.9601 29.453 28.7629 30.2443C29.5658 31.0356 30.0159 32.1077 30.0145 33.225V35.8334L28.5309 37.8865L30.0134 36.5898L33.2168 33.815V31.5696C33.2021 31.1999 33.0476 30.8489 32.7835 30.5852C32.6498 30.4531 32.4902 30.349 32.3145 30.279C32.1387 30.209 31.9504 30.1746 31.7608 30.1778L37.3562 29.0097V30.0146C37.5676 29.7061 37.8531 29.4534 38.1873 29.2787C38.5216 29.104 38.8944 29.0128 39.273 29.013H40.8192C41.4008 29.015 41.9764 29.1296 42.5129 29.3502C43.0495 29.5709 43.5365 29.8933 43.9461 30.299C44.3558 30.7048 44.6801 31.1859 44.9004 31.7148C45.1207 32.2437 45.2327 32.8101 45.2301 33.3817L45.2081 46.8756C45.2081 47.3341 45.3935 47.7739 45.7235 48.0981C46.0535 48.4224 46.501 48.6045 46.9677 48.6045C48.2731 48.6045 49.0363 47.5175 49.0385 46.5763C49.0421 46.4904 49.0347 46.4043 49.0165 46.3202C48.6514 43.5605 46.8236 43.3011 46.8236 43.3011C47.5165 43.0608 48.2444 42.932 48.9791 42.9197C50.2196 42.9197 51.5898 43.3725 51.956 45.2764C51.9816 45.4214 51.9963 45.568 52 45.7151ZM25.885 34.7691C25.8863 34.5275 25.8389 34.288 25.7454 34.0646C25.6519 33.8411 25.5142 33.6381 25.3404 33.4673C25.1665 33.2965 24.9599 33.1612 24.7325 33.0693C24.5051 32.9775 24.2614 32.9309 24.0155 32.9321C22.6442 32.9321 22.1207 34.1694 22.1185 35.2013V39.0502C22.1185 40.0768 22.6585 41.4458 24.0078 41.448C24.2538 41.4487 24.4975 41.4017 24.7249 41.3097C24.9524 41.2177 25.1591 41.0825 25.3333 40.9119C25.5075 40.7412 25.6457 40.5385 25.74 40.3153C25.8343 40.092 25.8828 39.8527 25.8828 39.6111L25.885 34.7691Z" fill="#B51F24"/>
<path id="Vector_24" d="M64.7339 43.0949C67.6335 43.0949 71.0055 44.8527 71 48.3905C70.9999 48.686 70.978 48.9812 70.9344 49.2736C70.3429 53.1903 66.1235 54.0053 63.2666 54C62.0332 54 61.0383 53.85 60.7135 53.7233C59.6322 53.2977 55.6753 51.7783 54.4485 47.3116C54.4485 47.3116 53.845 45.8582 53.8504 42.8428V40.6945C53.6389 40.9957 53.3544 41.2414 53.0219 41.4099C52.6895 41.5785 52.3195 41.6646 51.9447 41.6607H49.8028C48.7932 41.6578 47.826 41.2656 47.1131 40.5699C46.4003 39.8742 46 38.9318 46 37.9494V36.1799C45.9999 35.693 46.0985 35.2109 46.2902 34.7611C46.482 34.3114 46.763 33.9029 47.1173 33.5591C47.4716 33.2153 47.8922 32.943 48.3549 32.7577C48.8176 32.5724 49.3133 32.4778 49.8137 32.4793H51.9556C52.3279 32.4771 52.6952 32.5622 53.0264 32.7277C53.3576 32.8931 53.6429 33.1338 53.8581 33.4295V31.2185C53.854 30.7387 53.6611 30.2787 53.319 29.9331C53.1427 29.7628 52.9335 29.6281 52.7034 29.5367C52.4734 29.4454 52.227 29.3993 51.9786 29.4011C51.5799 29.3969 51.1913 29.5223 50.8743 29.7576C50.5922 29.9704 50.3975 30.2417 50.3965 30.5779V30.6418C50.3965 31.2312 50.9147 31.5685 50.9147 31.5685H49.384C49.384 31.5685 47.5253 31.5685 47.5253 30.4077C47.5253 29.2288 49.2812 28.9989 49.8213 29L53.6952 29.0064C54.8276 29.0055 55.914 29.4421 56.716 30.2201C57.5179 30.9981 57.9698 32.054 57.9724 33.156L57.9495 47.7691C57.9495 47.7691 58.026 53.5382 63.5005 53.5467C66.3564 53.5467 67.7877 51.6155 67.7909 49.7631C67.7909 48.4788 67.1032 47.2563 65.7409 46.7275C65.3327 46.577 64.9003 46.4981 64.4638 46.4944C63.8344 46.4886 63.2172 46.6633 62.6893 46.9967C62.0606 47.3755 61.4975 48.0266 61.4953 49.1013C61.5086 49.561 61.5956 50.0158 61.7533 50.4494C61.7533 50.4494 59.981 49.2673 59.9832 47.2882C59.9832 46.4668 60.2893 45.5198 61.1356 44.4462C61.8769 43.5535 63.2403 43.0928 64.7339 43.0949ZM53.8624 34.6978C53.8625 34.4586 53.8137 34.2218 53.7191 34.0011C53.6245 33.7804 53.4858 33.5801 53.3111 33.4119C53.1364 33.2437 52.9292 33.1109 52.7014 33.0211C52.4736 32.9313 52.2298 32.8864 51.984 32.889C50.6206 32.889 50.1253 34.1073 50.1187 35.1181V38.9293C50.1187 39.9189 50.6337 41.2702 51.9775 41.2702C52.4735 41.2719 52.9501 41.0827 53.3034 40.7439C53.6567 40.405 53.8581 39.944 53.8635 39.4613L53.8624 34.6978Z" fill="#B51F24"/>
<path id="Vector_25" d="M72 27.3367C71.5719 27.1628 71.1136 27.0812 70.6534 27.0968C68.0879 27.0968 64.4457 29.1805 64.4404 33.1298L64.4298 40.1202C64.4352 40.5463 64.5664 40.9607 64.806 41.3087C65.0541 41.642 65.4003 41.8845 65.7933 42L59 41.9891C59.4117 41.8763 59.7754 41.6271 60.0347 41.2802C60.294 40.9333 60.4343 40.5083 60.4337 40.0711L60.4464 31.612C60.4476 31.4278 60.4129 31.2451 60.3445 31.0747C60.2761 30.9044 60.1752 30.7497 60.0479 30.6198C59.7872 30.3473 59.4327 30.1906 59.0606 30.1836L64.4468 29.0267V30.5816C65.0186 28.5317 66.0123 24.9946 69.0168 25C71.5186 25.0055 72 27.3367 72 27.3367Z" fill="#B51F24"/>
<path id="Vector_26" d="M71 41.9894C71.4179 41.8801 71.7868 41.6409 72.0497 41.3089C72.3127 40.9769 72.4549 40.5705 72.4545 40.1527L72.4676 31.9584C72.4601 31.5901 72.3058 31.2388 72.0367 30.9775C71.7677 30.7163 71.4045 30.5652 71.023 30.5558L76.5696 29.4362L76.5521 40.159C76.5515 40.5758 76.6956 40.9807 76.9614 41.3092C77.2198 41.6431 77.5847 41.8858 78 42L71 41.9894ZM72.4753 26.9635C72.4777 26.5735 72.5996 26.1929 72.8258 25.8697C73.052 25.5465 73.3723 25.2951 73.7462 25.1473C74.1202 24.9995 74.5312 24.9619 74.9273 25.0391C75.3234 25.1164 75.6869 25.3051 75.9721 25.5815C76.2572 25.8579 76.4512 26.2095 76.5296 26.5921C76.608 26.9747 76.5672 27.3712 76.4125 27.7315C76.2577 28.0918 75.9959 28.3998 75.66 28.6167C75.3242 28.8336 74.9293 28.9497 74.5252 28.9503C73.9805 28.9486 73.4588 28.7385 73.0745 28.366C72.6902 27.9935 72.4747 27.4892 72.4753 26.9635Z" fill="#B51F24"/>
<path id="Vector_27" d="M86.5869 42C86.4606 41.9996 86.3357 41.9734 86.2194 41.9229C86.1032 41.8724 85.9979 41.7986 85.9097 41.7058C85.8215 41.6131 85.7522 41.5033 85.7059 41.3827C85.6595 41.2622 85.637 41.1334 85.6397 41.0039C85.4327 41.3117 85.1555 41.5629 84.8322 41.7356C84.5089 41.9083 84.1493 41.9972 83.7849 41.9945H81.7002C80.7177 41.9916 79.7764 41.5889 79.0827 40.8747C78.3891 40.1606 77.9997 39.1932 78 38.1848V36.3694C77.9997 35.8695 78.0956 35.3744 78.2823 34.9125C78.4689 34.4507 78.7426 34.0313 79.0876 33.6783C79.4325 33.3254 79.8421 33.0458 80.2926 32.8557C80.7431 32.6656 81.2258 32.5687 81.7129 32.5706H83.7976C84.1596 32.571 84.5163 32.6598 84.8382 32.8295C85.1602 32.9993 85.4382 33.2453 85.6493 33.5471V31.2774C85.6488 31.0312 85.6004 30.7877 85.5068 30.5611C85.4132 30.3345 85.2764 30.1294 85.1045 29.9579C84.9383 29.7814 84.7385 29.6418 84.5175 29.5478C84.2966 29.4539 84.0591 29.4076 83.82 29.4118C83.4261 29.4097 83.0421 29.538 82.7249 29.7777C82.5948 29.8773 82.4862 30.0036 82.4061 30.1486C82.3261 30.2935 82.2763 30.454 82.2599 30.6198V30.6624C82.2599 31.2894 82.7845 31.6367 82.7845 31.6367H81.2692C81.2692 31.6367 79.4781 31.6367 79.4803 30.444C79.4803 29.2337 81.167 28.9989 81.715 29L85.4844 29.0055C86.029 29.0056 86.5683 29.1159 87.0713 29.3302C87.5744 29.5444 88.0314 29.8583 88.4161 30.2539C88.8009 30.6495 89.1059 31.1191 89.3137 31.6359C89.5215 32.1526 89.6281 32.7062 89.6272 33.2652L89.6166 40.1169C89.6178 40.5422 89.7532 40.9555 90.0027 41.295C90.2521 41.6345 90.602 41.8819 91 42H86.5869ZM85.6419 39.7292L85.6493 34.8436C85.6492 34.5977 85.6017 34.3544 85.5095 34.1275C85.4173 33.9006 85.2823 33.6947 85.1123 33.5216C84.9423 33.3485 84.7405 33.2116 84.5187 33.1189C84.297 33.0262 84.0595 32.9794 83.82 32.9813C82.493 32.9813 82.0109 34.2537 82.0109 35.275V39.1885C82.0109 40.2043 82.5121 41.5915 83.82 41.5915C84.3014 41.5898 84.7627 41.3933 85.1038 41.0446C85.4449 40.696 85.6382 40.2233 85.6419 39.7292Z" fill="#B51F24"/>
<path id="Vector_28" d="M13 3.02533C12.5889 3.13869 12.2272 3.37894 11.9696 3.70965C11.712 4.04036 11.5726 4.4435 11.5726 4.85795L11.528 18.1579C11.524 18.5726 11.6601 18.9771 11.9155 19.3098C12.1708 19.6424 12.5315 19.8848 12.9423 20L5.98575 19.9778C6.40143 19.8693 6.76866 19.631 7.03062 19.2997C7.29258 18.9684 7.43469 18.5627 7.43495 18.1452L7.47955 4.82418C7.47955 4.03079 6.75278 3.40198 5.93462 3.39881H5.46025C4.79331 3.39881 4.25476 3.52014 3.69336 3.91473C3.06776 4.37262 2.72069 5.08162 2.63148 5.85391C2.61407 6.00629 2.60645 6.15956 2.60864 6.31286C2.59776 9.42419 5.84757 10.1237 5.84757 10.1237C5.26499 10.6209 4.51054 10.8869 3.7347 10.8686C1.94714 10.8622 -0.00797733 9.56135 0.000726568 7.22336C-0.00252024 7.07707 0.00511787 6.93074 0.0235767 6.78552C0.223766 4.96872 1.28129 4.01179 2.2953 3.51486C2.91589 3.22152 3.58889 3.04672 4.27761 3L13 3.02533Z" fill="#B51F24"/>
<path id="Vector_29" d="M23 15.6488C22.9974 16.0727 22.9403 16.4943 22.8303 16.9023C22.5823 17.7944 22.0635 18.5785 21.3516 19.1371C20.6397 19.6956 19.7732 19.9984 18.8822 20L12.4756 19.9782L12.485 17.0388C12.5931 17.7419 12.9363 18.3824 13.4539 18.8471C13.9716 19.3117 14.6302 19.5704 15.3133 19.5774H16.1628C17.9049 19.584 19.1116 18.2049 19.1148 17.1895V16.9951C19.12 15.3311 17.3602 14.7852 17.3602 14.7852L15.5794 14.13L14.4816 13.6933C12.97 13.1266 12.3509 12.1515 12.1058 11.3086C12.0286 11.0426 11.9933 10.7653 12.0011 10.4875C12.006 9.81662 12.2192 9.16544 12.6086 8.63128C12.9906 8.12214 13.479 7.71055 14.0367 7.42786C14.5943 7.14518 15.2065 6.99885 15.8266 7.00001L22.1494 7.02185L22.14 9.9612C22.0357 9.25635 21.6936 8.61341 21.1751 8.14804C20.6567 7.68267 19.9959 7.42542 19.3117 7.42257L17.3843 7.41602C17.0476 7.41529 16.7173 7.51166 16.43 7.69445C16.2446 7.81589 16.092 7.98461 15.9866 8.18465C15.8812 8.38469 15.8265 8.60944 15.8276 8.83765C15.8248 9.13804 15.9132 9.43168 16.08 9.6766C16.2469 9.92153 16.4838 10.1052 16.7568 10.2014L16.7777 10.2233L20.1727 11.5095C21.2286 11.9244 22.1389 12.727 22.6124 13.7872C22.8668 14.372 22.9989 15.0067 23 15.6488Z" fill="#B51F24"/>
<path id="Vector_30" d="M25.0929 4.53088C24.822 4.27329 24.4562 4.12953 24.0756 4.13102L29.6278 3L29.5982 18.179C29.5976 18.5874 29.7336 18.9851 29.9861 19.3131C30.2386 19.6411 30.5942 19.882 31 20L24 19.9778C24.4223 19.8658 24.7953 19.6242 25.0624 19.2898C25.3295 18.9553 25.4763 18.5461 25.4806 18.1241L25.5233 5.53423C25.5194 5.15885 25.3652 4.79942 25.0929 4.53088Z" fill="#B51F24"/>
<path id="Vector_31" d="M55 16.6463C54.9974 17.0704 54.9404 17.4922 54.8303 17.9005C54.5826 18.7933 54.0638 19.5781 53.3519 20.137C52.6399 20.6959 51.7733 20.9988 50.8822 21L44.4756 20.9781L44.485 18.0382C44.5931 18.7415 44.9364 19.3823 45.454 19.8471C45.9717 20.3118 46.6303 20.5704 47.3133 20.5772H48.1628C49.9049 20.5772 51.1116 19.2028 51.1148 18.1867V18.001C51.1148 16.336 49.3602 15.7897 49.3602 15.7897L47.5794 15.1342L46.4816 14.6972C44.97 14.1302 44.3509 13.1556 44.1058 12.3111C44.0286 12.0449 43.9933 11.7675 44.0011 11.4895C44.0057 10.8184 44.2185 10.1668 44.6076 9.63224C44.9898 9.12283 45.4785 8.71105 46.0363 8.42821C46.5941 8.14537 47.2064 7.99892 47.8266 8.00001L54.1494 8.02076L54.14 10.9618C54.0357 10.2567 53.6935 9.6135 53.175 9.14803C52.6565 8.68257 51.9958 8.4254 51.3117 8.42281L49.3843 8.41626C49.0477 8.41504 48.7174 8.51109 48.43 8.69376C48.244 8.81488 48.0908 8.98352 47.9848 9.1837C47.8789 9.38389 47.8237 9.60898 47.8245 9.83764C47.8216 10.1384 47.9099 10.4323 48.0768 10.6776C48.2437 10.9228 48.4805 11.1068 48.7536 11.2033L48.7746 11.2251L52.1696 12.5121C53.2255 12.9262 54.1358 13.7292 54.6093 14.7901C54.8639 15.373 54.9971 16.0057 55 16.6463Z" fill="#B51F24"/>
<path id="Vector_32" d="M40.3164 19.8061C40.1829 19.8109 40.0498 19.7901 39.9248 19.7449C39.7998 19.6998 39.6855 19.6312 39.5884 19.5431C39.4914 19.4551 39.4136 19.3493 39.3597 19.2321C39.3057 19.1149 39.2767 18.9886 39.2742 18.8605C39.0674 19.1727 38.7844 19.4319 38.4497 19.6157C38.115 19.7995 37.7387 19.9023 37.3532 19.9153L35.1472 19.9974C34.1074 20.0343 33.0948 19.674 32.3315 18.9957C31.5682 18.3174 31.1164 17.3764 31.0754 16.379L31.0033 14.5839C30.9822 14.0896 31.063 13.5962 31.2413 13.132C31.4195 12.6678 31.6916 12.242 32.0419 11.879C32.3922 11.5159 32.8138 11.2228 33.2825 11.0166C33.7512 10.8103 34.2578 10.6948 34.7732 10.6769L36.9792 10.5948C37.362 10.5806 37.7428 10.6539 38.0902 10.8085C38.4377 10.9632 38.742 11.1948 38.9779 11.4842L38.8878 9.24056C38.877 8.99734 38.8157 8.75864 38.7073 8.53851C38.599 8.31838 38.4458 8.12127 38.2568 7.95877C38.0736 7.79139 37.8564 7.66201 37.6187 7.57871C37.3811 7.49541 37.1281 7.45996 36.8755 7.47458C36.4587 7.48853 36.0577 7.63104 35.7319 7.88095C35.5997 7.98518 35.4913 8.11457 35.4138 8.26096C35.3362 8.40735 35.2911 8.56757 35.2813 8.73151V8.77475C35.3061 9.39403 35.8773 9.71609 35.8773 9.71609L34.2729 9.77554C34.2729 9.77554 32.379 9.84578 32.3316 8.66991C32.2832 7.47242 34.0566 7.17196 34.6357 7.15035L38.6241 7.00337C39.2007 6.98123 39.7761 7.06844 40.3175 7.26C40.8589 7.45155 41.3555 7.7437 41.779 8.11969C42.2025 8.49568 42.5444 8.94812 42.7853 9.4511C43.0262 9.95408 43.1612 10.4977 43.1827 11.0508L43.4553 17.8262C43.4745 18.2469 43.6354 18.6502 43.9139 18.9757C44.1925 19.3011 44.5736 19.5311 45 19.6311L40.3164 19.8061ZM39.2235 17.5992L39.0297 12.7693C39.0193 12.5263 38.9589 12.2877 38.852 12.0672C38.7451 11.8468 38.5937 11.6488 38.4067 11.4846C38.2197 11.3205 38.0006 11.1934 37.7622 11.1108C37.5238 11.0282 37.2707 10.9917 37.0175 11.0033C35.6136 11.0552 35.1517 12.3348 35.1923 13.3388L35.3478 17.208C35.3883 18.212 35.9776 19.5597 37.3589 19.5089C37.8695 19.4912 38.3521 19.2804 38.7015 18.9227C39.0508 18.5649 39.2384 18.0892 39.2235 17.5992Z" fill="#B51F24"/>
<path id="Vector_33" d="M104 39.0136C104 41.6299 102.673 44.3289 101.071 45.5392C99.8156 46.4948 98.1058 47.0021 96.42 47C93.6745 47 91.0601 45.6306 91 42.78V42.6521C91 39.3758 94.0973 38.9771 95.6542 38.9792C95.9432 38.9781 96.2321 38.9928 96.5194 39.0233C95.5449 39.4468 94.2896 40.6786 94.2874 42.2533V42.3801C94.3497 44.3805 95.7732 46.2755 97.7627 46.2787C100.292 46.2787 101.96 44.2859 101.965 41.5202C101.964 41.1932 101.943 40.8665 101.901 40.5421C101.559 38.0699 97.9944 36.8767 97.9681 36.8767C97.9419 36.8767 95.6345 36.0222 95.6345 36.0222L94.4884 35.5923C92.9108 35.0365 92.2641 34.0788 92.0062 33.249C91.9262 32.9867 91.8893 32.7134 91.897 32.4396C91.9013 31.7797 92.122 31.1389 92.5263 30.6123C92.9243 30.1107 93.4331 29.7049 94.0143 29.4255C94.5954 29.1462 95.2335 29.0007 95.8803 29L102.475 29.0097V31.9033C102.359 31.2076 101.996 30.5749 101.451 30.1181C100.905 29.6614 100.212 29.4102 99.4955 29.4095H97.506C97.145 29.4099 96.7918 29.513 96.4889 29.7062C96.2975 29.8229 96.1394 29.9855 96.0295 30.1788C95.9197 30.3721 95.8615 30.5897 95.8607 30.8112C95.861 31.1091 95.9572 31.3994 96.1354 31.6403C96.3136 31.8812 96.5646 32.0606 96.8527 32.1526L96.8745 32.1741L100.419 33.435C100.815 33.5913 101.192 33.7915 101.542 34.0315C103.314 35.2515 104.003 37.1207 104 39.0136Z" fill="#B51F24"/>
<path id="Vector_34" d="M6.00551 23.1118C16.6624 22.2718 27.7974 22.0828 38.5028 22C49.2136 22.0086 60.3365 22.1235 71 22.8882C60.3431 23.7332 49.2081 23.9209 38.5028 24C27.7919 23.9876 16.669 23.8765 6 23.1118H6.00551Z" fill="#B51F24"/>
</g>
<defs>
<clipPath id="clip0_119_1619">
<rect width="105" height="55" fill="white"/>
</clipPath>
</defs>
</svg>
