<svg width="151" height="78" viewBox="0 0 151 78" fill="none" xmlns="http://www.w3.org/2000/svg">
<g clip-path="url(#clip0_119_1667)">
<g opacity="0.25">
<path d="M58 7H55C55.1832 6.95347 55.3447 6.85246 55.4597 6.71254C55.5747 6.57263 55.6368 6.40159 55.6363 6.22582V1.5513C55.6438 1.3627 55.5881 1.17656 55.4767 1.01844C55.3654 0.860318 55.2038 0.737976 55.0143 0.668205C56.6304 0.488643 57.4003 0 57.4003 0V6.24789C57.395 6.41465 57.4511 6.57813 57.5594 6.71152C57.6665 6.85131 57.8219 6.95309 58 7Z" fill="white"/>
<path d="M63 3.05532C63 4.99012 62.4332 7.00147 60.3286 7C59.4397 7 58.952 6.81742 58.7176 6.3963C58.6444 6.27413 58.6031 6.13536 58.5975 5.99285C58.5985 5.91856 58.6134 5.84512 58.6415 5.7764C58.7062 5.62816 58.8147 5.50349 58.9522 5.41922C59.0897 5.33496 59.2496 5.29517 59.4104 5.30522C59.5102 5.3058 59.6092 5.32322 59.7033 5.35676C59.6344 5.41713 59.5744 5.64094 59.5744 5.88095C59.5744 6.3109 59.7443 6.83509 60.3433 6.83656C60.8222 6.83656 61.1913 5.9531 61.2425 5.10055C60.9993 5.17947 60.7453 5.21971 60.4897 5.21982C59.1131 5.21982 58 4.05658 58 2.61212C58 1.16765 59.1233 0 60.5 0C61.8767 0 63.0015 1.02629 63 3.05532ZM61.3758 2.61359C61.3758 2.50168 61.3758 2.39862 61.367 2.29555C61.3172 1.09109 60.9408 0.161965 60.4971 0.161965C60.0094 0.161965 59.6183 1.26188 59.6183 2.61212C59.6183 3.96235 60.0094 5.05491 60.4971 5.05491C60.9364 5.05491 61.2938 4.1788 61.3758 3.01704C61.367 2.89041 61.3817 2.752 61.3817 2.61506L61.3758 2.61359Z" fill="white"/>
<path d="M70 4.38052V4.38936C70 5.83383 68.6579 7.00147 67.0131 7C65.2861 7 64.4182 6.50084 64.112 5.88094C64.0437 5.74459 64.0058 5.59886 64 5.45098C64 4.79722 64.7979 4.38494 65.5643 4.38641H66.5372C66.5372 4.38641 65.9755 4.73833 65.9738 5.52903C65.9738 5.60707 65.9843 5.69247 65.9948 5.77935C66.0857 6.44047 66.6474 6.83656 67.0149 6.83803C67.5975 6.83803 68.0892 6.02082 68.0892 4.8944C68.0895 4.72525 68.0796 4.55619 68.0595 4.38788C67.9983 3.87989 67.5346 2.38389 66.0787 2.38241C65.3502 2.37863 64.6338 2.53876 64.0035 2.84623V0L68.1732 0.0103082C68.7647 0.0103082 69.1741 0.0544779 69.4488 0.466762C69.5166 0.578674 69.5486 0.703517 69.5416 0.828987C69.5423 0.966479 69.5145 1.10302 69.4593 1.23244C69.3817 1.37845 69.253 1.50107 69.0905 1.58395C68.9279 1.66682 68.7392 1.70599 68.5494 1.69625C68.4243 1.69712 68.3 1.67968 68.182 1.64472C68.2648 1.5719 68.3284 1.48523 68.3688 1.39036C68.4092 1.29548 68.4254 1.19452 68.4164 1.09403C68.4164 0.664071 68.1207 0.164913 67.4261 0.164913H65.944V2.22634H67.4261C67.8003 2.22306 68.1706 2.29101 68.5092 2.42511C68.5634 2.44263 68.6151 2.46536 68.6632 2.49285C69.0603 2.68397 69.3921 2.95818 69.6263 3.2889C69.8605 3.61962 69.9892 3.99564 70 4.38052Z" fill="white"/>
<path d="M75 3.05449C75 4.98969 74.433 7.00147 72.3279 7C71.4386 7 70.9508 6.81885 70.7164 6.39764C70.6432 6.27491 70.6018 6.13563 70.5962 5.99263C70.598 5.91889 70.6129 5.84606 70.6402 5.77761C70.705 5.62895 70.8137 5.50389 70.9515 5.41934C71.0893 5.33479 71.2496 5.29483 71.4108 5.30486C71.5106 5.30538 71.6097 5.3228 71.7038 5.3564C71.6349 5.41678 71.5749 5.64064 71.5749 5.88218C71.5749 6.31222 71.7448 6.83652 72.344 6.83652C72.823 6.83652 73.1922 5.96023 73.2435 5.10014C73.0004 5.17979 72.7462 5.22006 72.4905 5.21944C71.1134 5.21944 70 4.05743 70 2.61266C70 1.16789 71.1236 -0.00147136 72.5007 1.38961e-06C73.8778 0.00147414 75.0029 1.02504 75 3.05449ZM73.3753 2.61266C73.3753 2.50221 73.3753 2.39765 73.368 2.29455C73.3167 1.09131 72.9417 0.162001 72.4963 0.162001C72.0085 0.162001 71.6173 1.26215 71.6173 2.61266C71.6173 3.96318 72.01 5.05449 72.4963 5.05449C72.9358 5.05449 73.2933 4.17084 73.3753 3.01767C73.3665 2.88954 73.3753 2.75258 73.3753 2.61414V2.61266Z" fill="white"/>
</g>
<g opacity="0.25">
<path d="M21.8932 59.4334C22.9192 59.4364 23.9129 59.0914 24.6966 58.4602C25.4802 57.829 26.0029 56.9526 26.171 55.9878V60L18.959 59.9896C11.5922 59.9791 6.98907 54.5729 7.00002 47.9635C7.01097 41.354 12.1615 35.9911 17.6984 36C20.0195 36 21.4741 36.1238 22.8599 36.5382C25.7988 37.4582 27.0031 39.3711 27 41.2661C26.9852 42.5097 26.474 43.7012 25.5704 44.5984C24.5162 45.6003 22.8755 46.0983 21.1722 46.0893C20.3226 46.0789 19.4793 45.9488 18.6697 45.7032L18.7932 45.6435C20.4355 45.1157 21.3364 42.9598 21.3396 40.8978C21.3396 38.6614 20.3245 36.5293 18.0659 36.5248C14.8158 36.5248 12.8872 41.6522 12.8779 47.9665C12.8669 54.3105 16.5425 59.42 21.1847 59.4275L21.8932 59.4334Z" fill="white"/>
<path d="M76 65.4021C76 67.8553 73.0449 70.006 68.9996 70H68.8126C64.2032 70 60.2561 66.606 60.2641 62.1458L60.3211 46.6705C60.3211 45.2351 59.8251 42.6004 57.6623 42.5672H57.5989C56.0936 42.5672 54.9052 43.8497 54.9052 45.2896L54.8862 57.4119C54.8748 57.9963 55.0733 58.5668 55.4487 59.0287C55.8062 59.5037 56.3272 59.8436 56.9207 59.9891L46.7797 59.9724C47.3926 59.8143 47.9339 59.4679 48.32 58.9868C48.7061 58.5056 48.9154 57.9166 48.9157 57.3105L48.9284 49.47L44.8783 52.9048C44.704 53.0508 44.5636 53.23 44.4659 53.4307C44.3682 53.6315 44.3155 53.8495 44.311 54.0709V57.3983C44.3128 57.987 44.5145 58.5594 44.8859 59.0295C45.2573 59.4996 45.7783 59.8422 46.3709 60.0057L39.7856 59.9966C39.4104 59.9943 39.0506 59.854 38.781 59.6049C38.5121 59.3389 38.3567 58.9868 38.3453 58.6173C38.0427 59.0422 37.6352 59.3895 37.1589 59.6287C36.6825 59.8679 36.1518 59.9917 35.6136 59.9891H32.4778C31.7551 59.9865 31.04 59.848 30.3734 59.5814C29.7068 59.3147 29.1019 58.9253 28.5931 58.4353C28.0843 57.9454 27.6818 57.3645 27.4084 56.7259C27.1351 56.0873 26.9963 55.4035 27.0001 54.7137V52.1697C26.9992 51.4813 27.141 50.7994 27.4171 50.1635C27.6933 49.5275 28.0984 48.9499 28.6092 48.4638C29.12 47.9778 29.7265 47.5929 30.3936 47.3314C31.0608 47.0698 31.7756 46.9367 32.4968 46.9397H35.6326C36.1669 46.9402 36.6934 47.0631 37.1676 47.2981C37.6419 47.5332 38.0501 47.8734 38.358 48.2903V45.1474C38.3552 44.6692 38.2139 44.2011 37.9495 43.7948C37.6852 43.3886 37.3083 43.0601 36.8604 42.8457C36.4126 42.6313 35.9113 42.5395 35.4121 42.5803C34.913 42.6211 34.4354 42.7929 34.0322 43.0769C33.8387 43.2149 33.6773 43.3899 33.5584 43.5906C33.4395 43.7914 33.3655 44.0135 33.3414 44.243V44.302C33.3414 45.1414 34.1225 45.6511 34.1225 45.6511H31.8662C31.8662 45.6511 29.1994 45.6511 29.2026 43.9995C29.2026 42.3237 31.714 41.9985 32.5301 42H38.1425C39.7809 42.0028 41.351 42.6265 42.5078 43.7341C43.6645 44.8416 44.3131 46.3422 44.311 47.9061V51.5572L42.1735 54.4308L44.3095 52.6159L48.9252 48.7319V45.5891C48.9042 45.0716 48.6816 44.5802 48.3009 44.2112C48.108 44.0264 47.8782 43.8805 47.625 43.7823C47.3718 43.6841 47.1005 43.6355 46.8273 43.6395L54.8893 42.0061V43.4126C55.194 42.9808 55.6053 42.627 56.0869 42.3825C56.5685 42.138 57.1057 42.0103 57.6512 42.0106H59.879C60.7171 42.0134 61.5464 42.1738 62.3195 42.4827C63.0925 42.7915 63.7943 43.2428 64.3845 43.8107C64.9748 44.3786 65.442 45.052 65.7594 45.7923C66.0769 46.5327 66.2383 47.3255 66.2346 48.1254L66.2029 67.0129C66.2029 67.6547 66.47 68.2702 66.9454 68.724C67.4209 69.1779 68.0657 69.4328 68.7381 69.4328C70.6189 69.4328 71.7186 67.9113 71.7218 66.5939C71.7269 66.4732 71.7163 66.3523 71.6901 66.234C71.164 62.3727 68.5305 62.0097 68.5305 62.0097C69.5287 61.6725 70.5775 61.4922 71.6362 61.4758C73.4236 61.4758 75.3979 62.1095 75.9255 64.7745C75.9668 64.9816 75.9917 65.1914 76 65.4021ZM38.3659 50.081C38.3678 49.7429 38.2994 49.4077 38.1647 49.095C38.03 48.7822 37.8316 48.498 37.5811 48.2589C37.3306 48.0198 37.0329 47.8305 36.7053 47.7019C36.3776 47.5733 36.0265 47.5081 35.6722 47.5099C33.6963 47.5099 32.9421 49.2416 32.9389 50.686V56.0749C32.9389 57.5102 33.7169 59.428 35.6611 59.431C36.0155 59.432 36.3666 59.3662 36.6944 59.2374C37.0221 59.1087 37.32 58.9194 37.571 58.6806C37.8219 58.4417 38.0211 58.1579 38.1569 57.8455C38.2928 57.5331 38.3627 57.1981 38.3627 56.8598L38.3659 50.081Z" fill="white"/>
<path d="M94.9768 62.2961C99.1522 62.2961 104.008 64.8273 104 69.9205C104 70.3466 103.968 70.7722 103.904 71.1938C103.054 76.8339 96.9763 78.0061 92.8638 78C91.0878 78 89.6551 77.7824 89.1875 77.6001C87.6303 76.9872 81.9324 74.8007 80.1658 68.3683C80.1658 68.3683 79.2967 66.2753 79.3046 61.9329V58.8393C79.0001 59.273 78.5903 59.6269 78.1116 59.8696C77.6329 60.1122 77.1001 60.2362 76.5603 60.2306H73.476C72.0219 60.2265 70.6289 59.6615 69.6024 58.6593C68.5758 57.6571 67.9996 56.2997 68 54.8846V52.338C67.9996 51.6368 68.1415 50.9424 68.4175 50.2946C68.6935 49.6469 69.0983 49.0586 69.6085 48.5634C70.1188 48.0683 70.7245 47.6761 71.3908 47.4093C72.0572 47.1425 72.7712 47.0065 73.4917 47.0089H76.5761C77.1122 47.0063 77.641 47.1295 78.1179 47.3679C78.5948 47.6063 79.0056 47.9531 79.3156 48.3787V45.1947C79.3098 44.5038 79.032 43.8414 78.5394 43.3438C78.2855 43.0984 77.9843 42.9044 77.653 42.773C77.3217 42.6415 76.9669 42.5751 76.6091 42.5777C76.0351 42.5715 75.4754 42.7522 75.0189 43.091C74.6127 43.3974 74.3325 43.7881 74.3309 44.2723V44.3642C74.3309 45.2131 75.0772 45.6988 75.0772 45.6988H72.8729C72.8729 45.6988 70.1964 45.6988 70.1964 44.0271C70.1964 42.3279 72.725 41.9985 73.5027 42L79.081 42.0092C80.7116 42.0084 82.2758 42.6371 83.4306 43.7574C84.5853 44.8777 85.2362 46.3981 85.2403 47.9849L85.2151 69.0502C85.2151 69.0502 85.3253 77.358 93.2087 77.3702C97.3211 77.3702 99.3821 74.5892 99.3868 71.9216C99.3868 70.0722 98.3965 68.3116 96.4347 67.5501C95.8469 67.3335 95.2243 67.2199 94.5957 67.2145C93.6894 67.2061 92.8007 67.4576 92.0404 67.9378C91.1351 68.4817 90.3242 69.421 90.3211 70.9685C90.3403 71.63 90.4656 72.2846 90.6927 72.9083C90.6927 72.9083 88.1405 71.2076 88.1436 68.3576C88.1436 67.1747 88.5845 65.8095 89.8031 64.265C90.858 62.9564 92.8213 62.293 94.9768 62.2961ZM79.3172 50.2036C79.3172 49.8591 79.247 49.518 79.1106 49.2C78.9743 48.8821 78.7744 48.5936 78.5227 48.3514C78.271 48.1091 77.9724 47.9178 77.6442 47.7887C77.316 47.6595 76.9647 47.595 76.6107 47.5988C74.6489 47.5988 73.9341 49.3532 73.9263 50.8165V56.305C73.9263 57.73 74.6678 59.6759 76.6028 59.6759C77.3171 59.6784 78.0035 59.406 78.5122 58.918C79.021 58.4301 79.3109 57.7662 79.3188 57.0711L79.3172 50.2036Z" fill="white"/>
<path d="M105 40.3002C104.374 40.0548 103.704 39.9395 103.032 39.9615C99.2823 39.9615 93.9591 42.903 93.9514 48.4782L93.9358 58.3463C93.9437 58.9474 94.1354 59.5319 94.4857 60.0226C94.8477 60.4941 95.3539 60.837 95.9287 61L86 60.9846C86.6017 60.8254 87.1333 60.4736 87.5123 59.9839C87.8913 59.4943 88.0963 58.8942 88.0954 58.2771L88.114 46.3356C88.1159 46.0754 88.0653 45.8175 87.9653 45.577C87.8653 45.3365 87.7178 45.1182 87.5316 44.9348C87.1506 44.5501 86.6324 44.329 86.0885 44.3191L93.9591 42.686V44.8794C94.7948 41.9872 96.2471 36.9938 100.638 37C104.296 37.0092 105 40.3002 105 40.3002Z" fill="white"/>
<path d="M104 59.9851C104.597 59.8308 105.125 59.4933 105.501 59.0248C105.876 58.5563 106.08 57.9829 106.079 57.3933L106.098 45.8307C106.087 45.31 105.866 44.8134 105.48 44.4446C105.094 44.0758 104.573 43.8633 104.027 43.8515L111.955 42.2701L111.93 57.4022C111.929 57.9903 112.135 58.5617 112.515 59.0253C112.885 59.4964 113.406 59.8389 114 60L104 59.9851ZM106.109 38.7826C106.11 38.4166 106.186 38.0543 106.333 37.7164C106.481 37.3785 106.697 37.0715 106.969 36.8131C107.241 36.5548 107.564 36.35 107.919 36.2104C108.274 36.0709 108.655 35.9994 109.039 36C109.423 36.0006 109.804 36.0733 110.158 36.2139C110.513 36.3545 110.835 36.5603 111.106 36.8195C111.378 37.0787 111.593 37.3863 111.739 37.7246C111.886 38.063 111.961 38.4255 111.96 38.7915C111.959 39.1575 111.883 39.5198 111.735 39.8578C111.588 40.1957 111.372 40.5026 111.1 40.761C110.828 41.0194 110.505 41.2242 110.15 41.3637C109.794 41.5032 109.414 41.5747 109.03 41.5741C108.646 41.5735 108.265 41.5009 107.911 41.3603C107.556 41.2197 107.234 41.0139 106.962 40.7546C106.691 40.4954 106.476 40.1879 106.33 39.8495C106.183 39.5111 106.108 39.1486 106.109 38.7826Z" fill="white"/>
<path d="M126.55 61C126.366 60.9996 126.183 60.9635 126.013 60.8938C125.843 60.824 125.689 60.722 125.56 60.5937C125.432 60.4654 125.33 60.3134 125.262 60.1466C125.195 59.9798 125.162 59.8016 125.166 59.6223C124.863 60.0478 124.457 60.3952 123.985 60.6342C123.512 60.8732 122.987 60.9967 122.455 60.9939H119.408C117.972 60.9899 116.596 60.4324 115.582 59.4435C114.569 58.4546 114 57.1151 114 55.7189V53.2053C114 52.5131 114.14 51.8276 114.413 51.1881C114.685 50.5487 115.085 49.9679 115.59 49.4792C116.094 48.9905 116.692 48.6034 117.351 48.3402C118.009 48.077 118.715 47.9428 119.427 47.9454H122.473C123.002 47.9457 123.524 48.0683 123.994 48.3031C124.465 48.538 124.871 48.8782 125.18 49.2959V46.1533C125.179 45.8125 125.108 45.4754 124.971 45.1616C124.834 44.8479 124.635 44.5639 124.383 44.3263C124.14 44.0821 123.848 43.889 123.525 43.7589C123.203 43.6288 122.856 43.5646 122.506 43.5702C121.931 43.5673 121.369 43.745 120.906 44.0768C120.715 44.2147 120.557 44.3896 120.44 44.5903C120.323 44.7911 120.25 45.0133 120.226 45.2428V45.3018C120.226 46.1699 120.993 46.6508 120.993 46.6508H118.778C118.778 46.6508 116.16 46.6508 116.163 44.9993C116.163 43.3236 118.629 42.9985 119.43 43H124.939C125.735 43.0002 126.523 43.153 127.258 43.4496C127.993 43.7462 128.661 44.1808 129.224 44.7286C129.786 45.2764 130.232 45.9266 130.535 46.6421C130.839 47.3575 130.995 48.1242 130.994 48.8982L130.978 58.3851C130.98 58.9739 131.178 59.5462 131.542 60.0163C131.907 60.4864 132.418 60.8289 133 60.9924L126.55 61ZM125.169 57.8558L125.18 51.0926C125.179 50.7529 125.108 50.4167 124.973 50.1035C124.838 49.7902 124.641 49.506 124.392 49.2671C124.144 49.0282 123.849 48.8394 123.526 48.7115C123.202 48.5835 122.856 48.519 122.506 48.5216C120.567 48.5216 119.862 50.2835 119.862 51.69L119.853 57.1072C119.853 58.5137 120.587 60.4344 122.497 60.4344C123.203 60.4352 123.882 60.1639 124.383 59.6799C124.885 59.1959 125.169 58.5384 125.174 57.8513L125.169 57.8558Z" fill="white"/>
<path d="M151 56.9144C151 60.546 149.06 64.2924 146.719 65.9724C144.884 67.2988 142.385 68.003 139.922 68C135.907 68 132.088 66.0992 132 62.1424V61.9648C132 57.4172 136.527 56.8637 138.802 56.8667C139.225 56.8651 139.647 56.8855 140.067 56.9278C138.643 57.5157 136.808 59.2255 136.805 61.4039V61.5799C136.896 64.3565 138.976 66.9869 141.884 66.9914C145.581 66.9914 148.019 64.2252 148.025 60.3863C148.024 59.9324 147.993 59.4789 147.933 59.0286C147.433 55.597 142.223 53.9409 142.184 53.9409C142.146 53.9409 138.772 52.7473 138.772 52.7473L137.098 52.1505C134.793 51.3791 133.847 50.0497 133.471 48.8964C133.354 48.5328 133.3 48.154 133.311 47.7744C133.317 46.8584 133.64 45.9687 134.231 45.238C134.812 44.5418 135.556 43.9784 136.405 43.5907C137.255 43.2029 138.187 43.0009 139.133 43L148.771 43.0134V47.0299C148.602 46.0641 148.072 45.1858 147.274 44.5517C146.477 43.9176 145.464 43.5691 144.416 43.5685H141.509C140.981 43.569 140.465 43.712 140.022 43.9802C139.743 44.1422 139.511 44.3679 139.351 44.6362C139.19 44.9045 139.105 45.2066 139.104 45.514C139.105 45.9276 139.245 46.3303 139.506 46.6647C139.766 46.9991 140.133 47.2481 140.554 47.376L140.586 47.4059L145.766 49.156C146.345 49.373 146.895 49.6508 147.407 49.9841C149.997 51.6864 151.005 54.287 151 56.9144Z" fill="white"/>
</g>
<path opacity="0.25" d="M10.0016 33.1118C25.2489 32.2718 41.1818 32.0828 56.4968 32C71.8214 32.0099 87.7338 32.1235 103 32.8882C87.7527 33.7332 71.8214 33.9209 56.5047 34C41.1786 33.9876 25.2662 33.8765 10 33.1118H10.0016Z" fill="white"/>
<path d="M57 7H54C54.1827 6.9531 54.3437 6.85219 54.4586 6.71267C54.5735 6.57315 54.6359 6.40269 54.6363 6.22729V1.5513C54.6441 1.36266 54.5884 1.17642 54.477 1.01826C54.3656 0.860096 54.204 0.737795 54.0143 0.668205C55.6304 0.488643 56.4003 0 56.4003 0V6.2479C56.3946 6.41516 56.4508 6.5792 56.5594 6.71299C56.6673 6.85173 56.8225 6.95283 57 7Z" fill="white"/>
<path d="M62 3.05449C62 4.98969 61.4316 7.00147 59.3279 7C58.4372 7 57.9493 6.81884 57.7164 6.39616C57.6434 6.27396 57.6026 6.13509 57.5977 5.99263C57.5984 5.91892 57.6128 5.84599 57.6402 5.77762C57.705 5.62896 57.8137 5.50389 57.9515 5.41934C58.0893 5.33479 58.2496 5.29483 58.4108 5.30486C58.5106 5.30538 58.6097 5.3228 58.7038 5.3564C58.6349 5.41678 58.5749 5.64064 58.5749 5.88218C58.5749 6.31222 58.7448 6.83653 59.344 6.83653C59.823 6.83653 60.1922 5.95287 60.2435 5.10014C60.0004 5.17979 59.7462 5.22006 59.4905 5.21944C58.1134 5.21944 57 4.05743 57 2.61266C57 1.16789 58.1222 -0.00147136 59.4993 1.38961e-06C60.8764 0.00147414 62.0015 1.02504 62 3.05449ZM60.3739 2.61266C60.3739 2.50073 60.3739 2.39765 60.3665 2.29455C60.3153 1.09131 59.9402 0.16201 59.4949 0.16201C59.007 0.16201 58.6159 1.26216 58.6159 2.6112C58.6159 3.96024 59.0085 5.05449 59.4949 5.05449C59.9344 5.05449 60.2904 4.17084 60.3739 3.01767C60.3651 2.88954 60.3812 2.75258 60.3812 2.61414L60.3739 2.61266Z" fill="white"/>
<path d="M68 4.37868V4.38898C68 5.83284 66.8816 7.00147 65.5109 7C64.0717 7 63.3485 6.49958 63.0933 5.88142C63.0363 5.74465 63.0047 5.59848 63 5.45017C63 4.79815 63.6649 4.38604 64.3036 4.38604H65.1158C65.1158 4.38604 64.6477 4.73928 64.6463 5.52965C64.6463 5.60618 64.655 5.69302 64.6638 5.77839C64.7396 6.44071 65.2076 6.83663 65.5138 6.83663C65.9994 6.83663 66.4092 6.02124 66.4106 4.89529C66.4104 4.72569 66.4016 4.55621 66.3844 4.38751C66.3333 3.8812 65.9469 2.38436 64.7337 2.38436C64.1272 2.37953 63.5304 2.53914 63.0058 2.84651V0L66.4806 0.0117771C66.9735 0.0117771 67.3147 0.0544565 67.545 0.468039C67.6002 0.579799 67.6263 0.703893 67.6209 0.828638C67.6217 0.966566 67.5985 1.10357 67.5523 1.23339C67.4873 1.37909 67.38 1.50143 67.2446 1.58422C67.1092 1.667 66.9521 1.70634 66.7941 1.69702C66.6897 1.69813 66.586 1.68017 66.4879 1.64403C66.5568 1.57146 66.6098 1.48509 66.6434 1.39051C66.6771 1.29593 66.6907 1.19526 66.6833 1.09504C66.6833 0.665265 66.4369 0.166317 65.858 0.166317H64.6244V2.22687H65.858C66.1699 2.22329 66.4785 2.29123 66.7606 2.42556C66.8058 2.44358 66.8489 2.4668 66.8889 2.49475C67.219 2.68579 67.4947 2.95955 67.6893 3.28957C67.884 3.61959 67.991 3.99471 68 4.37868Z" fill="white"/>
<path d="M73 3.05532C73 4.99012 72.4314 7.00147 70.3271 7C69.4361 7 68.9496 6.81742 68.7151 6.3963C68.6427 6.27331 68.602 6.13416 68.5964 5.99138C68.5971 5.91768 68.6115 5.84475 68.6389 5.7764C68.7042 5.62818 68.813 5.50357 68.9508 5.41934C69.0886 5.33511 69.2487 5.29529 69.4097 5.30522C69.5096 5.30575 69.6087 5.32316 69.7028 5.35676C69.6339 5.41713 69.5739 5.64094 69.5739 5.88094C69.5739 6.3109 69.7453 6.83509 70.3432 6.83656C70.8224 6.83656 71.1917 5.9531 71.2444 5.10055C71.001 5.17935 70.7469 5.21959 70.4912 5.21982C69.1123 5.21982 68 4.05658 68 2.61212C68 1.16765 69.1225 -0.00147106 70.5 1.38932e-06C71.8775 0.00147383 73.0015 1.02041 73 3.05532ZM71.3734 2.61359C71.3734 2.50168 71.3734 2.39862 71.3734 2.29555C71.3221 1.09109 70.947 0.161967 70.4941 0.161967C70.0062 0.161967 69.6149 1.26188 69.6149 2.61212C69.6149 3.96235 70.0076 5.05491 70.4941 5.05491C70.9338 5.05491 71.2899 4.1788 71.3734 3.01704C71.3646 2.88599 71.3734 2.74758 71.3734 2.61359Z" fill="white"/>
<g opacity="0.4">
<path d="M19 5.03724C18.3986 5.20286 17.8692 5.55593 17.4927 6.04255C17.1163 6.52917 16.9133 7.1226 16.915 7.73226L16.8482 27.2926C16.8427 27.9021 17.0418 28.4967 17.4151 28.9856C17.7884 29.4744 18.3154 29.8307 18.9157 30L8.74986 29.9674C9.35751 29.8078 9.8943 29.4573 10.2772 28.9701C10.6602 28.483 10.8679 27.8863 10.8683 27.2724L10.9335 7.68261C10.9335 6.51585 9.87109 5.59113 8.67511 5.58803H7.98329C7.00678 5.58803 6.21953 5.76801 5.39888 6.34829C4.4844 7.02166 3.97707 8.05499 3.84824 9.19847C3.82155 9.42246 3.80987 9.64791 3.81326 9.87339C3.79895 14.4489 8.54788 15.4776 8.54788 15.4776C7.69644 16.209 6.59349 16.6002 5.45932 16.573C2.84629 16.573 -0.0100707 14.6521 0.00106209 11.2124C-0.00368404 10.9972 0.00748121 10.7821 0.034464 10.5685C0.327098 7.89828 1.87297 6.49103 3.35522 5.75871C4.26294 5.32702 5.2472 5.06945 6.25452 5L19 5.03724Z" fill="white"/>
<path d="M36 22.9773C35.996 23.5637 35.9078 24.1468 35.7377 24.7113C35.355 25.9466 34.5532 27.0325 33.4529 27.8059C32.3527 28.5793 31.0133 28.9983 29.6361 29L19.735 28.9698L19.7496 24.9017C19.9163 25.8751 20.4467 26.762 21.2468 27.4051C22.0469 28.0481 23.065 28.4059 24.1206 28.415H25.4335C28.1257 28.424 29.9907 26.5147 29.9955 25.1088V24.8398C30.0036 22.5374 27.2839 21.78 27.2839 21.78L24.5318 20.873L22.8352 20.2683C20.4991 19.4838 19.5424 18.1338 19.1636 16.9667C19.0442 16.5979 18.9895 16.2135 19.0017 15.8284C19.0092 14.8996 19.3387 13.998 19.9406 13.2585C20.531 12.5536 21.2858 11.9838 22.1476 11.5924C23.0094 11.201 23.9555 10.9984 24.9139 11L34.6855 11.0302L34.6709 15.0998C34.5098 14.1239 33.981 13.2338 33.1797 12.5895C32.3785 11.9451 31.3573 11.589 30.2999 11.585L27.3211 11.576C26.8011 11.5752 26.2909 11.7081 25.8463 11.9599C25.5588 12.1278 25.322 12.3614 25.1582 12.6386C24.9945 12.9159 24.9092 13.2276 24.9106 13.5442C24.905 13.9604 25.0411 14.3675 25.2991 14.7068C25.5572 15.0461 25.9239 15.3002 26.3466 15.4324L26.3789 15.4626L31.6258 17.2434C33.2576 17.8178 34.6644 18.9289 35.3962 20.3968C35.7915 21.2072 35.9973 22.0869 36 22.9773Z" fill="white"/>
<path d="M36.5613 7.25129C36.1743 6.87248 35.6517 6.66107 35.1079 6.66326L43.0397 5L42.9975 27.322C42.9855 27.9214 43.1797 28.5069 43.5482 28.9822C43.8979 29.4787 44.4114 29.8386 45 30L35 29.9674C35.6033 29.8026 36.1361 29.4474 36.5177 28.9555C36.8993 28.4637 37.1091 27.8619 37.1151 27.2414L37.1793 8.72681C37.1728 8.17435 36.9514 7.64572 36.5613 7.25129Z" fill="white"/>
<path d="M81 23.9748C80.996 24.5617 80.9078 25.1455 80.7377 25.7105C80.3548 26.9461 79.5528 28.0322 78.4522 28.8057C77.3516 29.5792 76.0118 29.9983 74.6342 30L64.7302 29.9698L64.7447 25.8995C64.9118 26.8731 65.4424 27.7601 66.2426 28.4035C67.0428 29.0469 68.0611 29.4051 69.117 29.4149H70.4304C73.1298 29.433 74.9954 27.5173 75.0083 26.1067V25.8375C75.0083 23.5363 72.2878 22.7803 72.2878 22.7803L69.5348 21.8732L67.8377 21.2684C65.501 20.4837 64.5439 19.135 64.1634 17.9662C64.0448 17.5977 63.9902 17.2139 64.0014 16.8292C64.0094 15.9005 64.3382 14.999 64.9391 14.2589C65.5305 13.5544 66.286 12.9849 67.1482 12.5935C68.0104 12.2021 68.9567 11.9992 69.9154 12L79.6899 12.0302L79.6753 16.1005C79.5144 15.1244 78.9856 14.2341 78.184 13.5899C77.3823 12.9457 76.3607 12.5899 75.303 12.5866L72.3234 12.5776C71.803 12.5752 71.2922 12.7081 70.8482 12.9616C70.5607 13.1292 70.3238 13.3626 70.16 13.6397C69.9962 13.9167 69.9109 14.2282 69.9122 14.5447C69.9087 14.96 70.0457 15.3659 70.3036 15.7044C70.5615 16.0429 70.9271 16.2968 71.3485 16.4301L71.3809 16.4588L76.6277 18.2444C78.26 18.8175 79.6673 19.9288 80.3992 21.3969C80.7931 22.2067 80.9979 23.0854 81 23.9748Z" fill="white"/>
<path d="M58.3134 29.733C58.1227 29.7396 57.9324 29.7107 57.7538 29.6482C57.5752 29.5856 57.4118 29.4906 57.2731 29.3687C57.1345 29.2467 57.0233 29.1003 56.9462 28.9379C56.8692 28.7756 56.8276 28.6006 56.8241 28.4231C56.5283 28.8553 56.1238 29.214 55.6455 29.4683C55.1673 29.7226 54.6296 29.8648 54.079 29.8827L50.9265 29.9964C49.4408 30.0475 47.994 29.5487 46.9033 28.6095C45.8125 27.6703 45.1668 26.3673 45.1077 24.9862L45.0047 22.5012C44.9745 21.8166 45.0901 21.1333 45.3448 20.4903C45.5995 19.8474 45.9883 19.2576 46.4889 18.7547C46.9895 18.2519 47.592 17.846 48.2618 17.5603C48.9316 17.2745 49.6555 17.1146 50.3919 17.0898L53.5444 16.976C54.0913 16.9563 54.6354 17.0575 55.132 17.2714C55.6285 17.4853 56.0634 17.8058 56.4007 18.2065L56.2719 15.0988C56.2564 14.7618 56.1686 14.431 56.0138 14.1259C55.859 13.8208 55.6402 13.5474 55.3702 13.322C55.1081 13.0906 54.7976 12.9119 54.458 12.7968C54.1185 12.6817 53.7571 12.6327 53.3963 12.6528C52.801 12.6724 52.2281 12.8692 51.7621 13.2142C51.5729 13.3587 51.4179 13.5382 51.3071 13.7412C51.1962 13.9443 51.1319 14.1665 51.1181 14.3938V14.4537C51.1535 15.3114 51.9698 15.7575 51.9698 15.7575L49.6771 15.8398C49.6771 15.8398 46.9674 15.9401 46.8965 14.3145C46.8273 12.6558 49.3615 12.2397 50.1891 12.2097L55.8887 12.0047C56.7123 11.974 57.5344 12.0947 58.3079 12.3598C59.0813 12.625 59.7909 13.0293 60.396 13.5498C61.0011 14.0703 61.4898 14.6966 61.8342 15.3929C62.1786 16.0892 62.3719 16.8419 62.403 17.6077L62.7926 26.9921C62.8193 27.5753 63.049 28.1346 63.4471 28.586C63.8451 29.0374 64.3901 29.3564 65 29.495L58.3134 29.733ZM56.7517 26.6762L56.4747 19.9864C56.4597 19.6499 56.3732 19.3194 56.2203 19.0141C56.0675 18.7087 55.8512 18.4344 55.584 18.207C55.3168 17.9796 55.0039 17.8035 54.6633 17.6888C54.3227 17.5741 53.9611 17.5232 53.5992 17.5389C51.593 17.6107 50.9329 19.3846 50.9909 20.7753L51.2131 26.1343C51.271 27.525 52.1131 29.3917 54.087 29.3213C54.8163 29.2963 55.5055 29.0045 56.0046 28.5094C56.5036 28.0143 56.7721 27.356 56.7517 26.6777V26.6762Z" fill="white"/>
</g>
<path d="M20.8932 59.4099C21.9193 59.4123 22.9128 59.0525 23.6964 58.3948C24.48 57.7371 25.0026 56.8243 25.171 55.8194V60L17.959 59.9876C10.5922 59.9767 5.98907 54.3456 6.00002 47.4612C6.01097 40.5768 11.1615 34.9922 16.6984 35C19.0195 35 20.4741 35.1289 21.8599 35.5606C24.7988 36.5188 26.0031 38.5113 26 40.4852C25.9852 41.7805 25.474 43.0216 24.5704 43.9561C23.5162 44.9997 21.8755 45.5184 20.1722 45.5091C19.3226 45.4969 18.4794 45.3609 17.6697 45.1053L17.7932 45.0432C19.4355 44.4934 20.3364 42.2478 20.3396 40.1C20.3396 37.7705 19.3245 35.5498 17.0659 35.5451C13.8158 35.5451 11.8872 40.8858 11.8779 47.4627C11.8669 54.0707 15.5425 59.3928 20.1847 59.4005L20.8932 59.4099Z" fill="white"/>
<path d="M75 64.4011C75 66.8564 72.0442 69.006 67.998 69H67.811C63.2005 69 59.2526 65.6053 59.2605 61.1441L59.3176 45.6669C59.3176 44.2298 58.8215 41.5945 56.6581 41.5612H56.5947C55.0891 41.5612 53.9004 42.8441 53.9004 44.2842L53.8814 56.4092C53.8701 56.9937 54.0686 57.5643 54.444 58.0263C54.8016 58.5014 55.3228 58.8414 55.9164 58.9869L45.7858 58.9718C46.3986 58.8137 46.9398 58.4674 47.3259 57.9865C47.712 57.5056 47.9216 56.9167 47.9222 56.3108L47.9349 48.4671L43.8823 51.9056C43.708 52.0517 43.5676 52.2309 43.4699 52.4317C43.3722 52.6325 43.3194 52.8506 43.315 53.072V56.4001C43.3167 56.989 43.5185 57.5615 43.89 58.0317C44.2614 58.5019 44.7826 58.8445 45.3753 59.0081L38.7885 58.999C38.4132 58.9967 38.0533 58.8564 37.7837 58.6072C37.5147 58.3412 37.3593 57.989 37.3479 57.6194C37.045 58.0443 36.6375 58.3918 36.1611 58.6313C35.6847 58.8708 35.154 58.995 34.6155 58.993H31.479C30.7561 58.9904 30.0409 58.8518 29.3742 58.5852C28.7074 58.3185 28.1023 57.929 27.5935 57.4389C27.0846 56.9488 26.6819 56.3678 26.4085 55.7291C26.1351 55.0903 25.9963 54.4064 26.0001 53.7164V51.1719C25.9992 50.4833 26.141 49.8014 26.4172 49.1652C26.6934 48.5291 27.0986 47.9514 27.6096 47.4652C28.1205 46.9791 28.7271 46.5941 29.3944 46.3325C30.0617 46.0709 30.7766 45.9377 31.498 45.9407H34.6345C35.1692 45.9413 35.6959 46.0644 36.1702 46.2998C36.6446 46.5351 37.0529 46.8758 37.3605 47.2932V44.1496C37.3581 43.6712 37.2169 43.2027 36.9526 42.7962C36.6884 42.3896 36.3114 42.0608 35.8634 41.8462C35.4154 41.6316 34.9139 41.5396 34.4144 41.5804C33.915 41.6211 33.4371 41.7931 33.0338 42.0771C32.8402 42.2152 32.6788 42.3902 32.5599 42.591C32.4409 42.7917 32.367 43.0139 32.3428 43.2435V43.3025C32.3428 44.142 33.1241 44.6519 33.1241 44.6519H30.8673C30.8673 44.6519 28.1999 44.6519 28.2031 43.0014C28.2031 41.3237 30.7151 40.9985 31.5313 41L37.145 41.0076C38.7838 41.0104 40.3543 41.6342 41.5113 42.742C42.6683 43.8498 43.3171 45.3508 43.315 46.915V50.5668L41.1769 53.4411L43.3134 51.6258L47.9301 47.7409V44.5974C47.9089 44.0798 47.6862 43.5885 47.3057 43.2192C47.1129 43.0344 46.8829 42.8886 46.6297 42.7906C46.3764 42.6926 46.105 42.6444 45.8318 42.6489L53.8957 41.0136V42.4205C54.2004 41.9885 54.6118 41.6347 55.0935 41.3902C55.5752 41.1456 56.1125 41.0179 56.6581 41.0182H58.8865C59.7247 41.0209 60.5542 41.1814 61.3275 41.4903C62.1007 41.7993 62.8026 42.2507 63.393 42.8187C63.9834 43.3867 64.4507 44.0602 64.7682 44.8007C65.0857 45.5412 65.2472 46.3342 65.2434 47.1343L65.2117 66.0259C65.2117 66.6678 65.4789 67.2835 65.9545 67.7374C66.43 68.1913 67.075 68.4463 67.7476 68.4463C69.6288 68.4463 70.7287 66.9244 70.7319 65.6068C70.7371 65.4865 70.7265 65.3661 70.7002 65.2483C70.174 61.3847 67.5399 61.0216 67.5399 61.0216C68.5385 60.6852 69.5875 60.5048 70.6463 60.4876C72.4341 60.4876 74.4088 61.1215 74.9366 63.787C74.9734 63.9899 74.9946 64.1952 75 64.4011ZM37.3637 49.0767C37.3656 48.7385 37.2972 48.4033 37.1625 48.0904C37.0277 47.7776 36.8293 47.4934 36.5788 47.2542C36.3282 47.015 36.0304 46.8257 35.7027 46.6971C35.375 46.5685 35.0238 46.5032 34.6694 46.505C32.6931 46.505 31.9386 48.2371 31.9355 49.6818V55.0703C31.9355 56.5075 32.7137 58.4242 34.6583 58.4272C35.0128 58.4282 35.364 58.3624 35.6918 58.2336C36.0196 58.1048 36.3176 57.9155 36.5686 57.6766C36.8196 57.4377 37.0188 57.1539 37.1547 56.8414C37.2906 56.5289 37.3605 56.1938 37.3605 55.8555L37.3637 49.0767Z" fill="white"/>
<path d="M92.9768 61.2967C97.1522 61.2967 102.008 63.8279 102 68.9223C102 69.3479 101.968 69.7729 101.906 70.194C101.054 75.834 94.9779 77.0076 90.8638 77C89.0879 77 87.6551 76.7839 87.1875 76.6016C85.6303 75.9887 79.9324 73.8008 78.1658 67.3687C78.1658 67.3687 77.2967 65.2758 77.3046 60.9336V57.8401C77.0001 58.2738 76.5903 58.6276 76.1116 58.8703C75.6329 59.113 75.1001 59.237 74.5603 59.2313H71.476C70.0222 59.2273 68.6294 58.6624 67.6029 57.6606C66.5764 56.6588 66 55.3018 66 53.8871V51.3391C65.9998 50.638 66.1418 49.9437 66.4179 49.296C66.694 48.6484 67.0988 48.0602 67.609 47.5651C68.1192 47.07 68.7248 46.6779 69.3911 46.411C70.0573 46.1442 70.7712 46.008 71.4917 46.0102H74.5761C75.1121 46.007 75.6411 46.1296 76.118 46.3678C76.595 46.606 77.0058 46.9527 77.3156 47.3784V44.1946C77.3098 43.5037 77.032 42.8413 76.5394 42.3437C76.2855 42.0984 75.9843 41.9044 75.653 41.7729C75.3217 41.6414 74.9669 41.5751 74.6091 41.5776C74.0351 41.5715 73.4754 41.7522 73.0189 42.0909C72.6127 42.3973 72.3325 42.788 72.3309 43.2722V43.3641C72.3309 44.213 73.0772 44.6987 73.0772 44.6987H70.873C70.873 44.6987 68.1964 44.6987 68.1964 43.0271C68.1964 41.3294 70.725 40.9985 71.5027 41L77.081 41.0092C78.7117 41.008 80.2762 41.6366 81.431 42.7569C82.5858 43.8773 83.2366 45.3978 83.2403 46.9847L83.2073 68.0276C83.2073 68.0276 83.3175 76.335 91.2008 76.3473C95.3133 76.3473 97.3742 73.5664 97.379 70.8989C97.379 69.0495 96.3886 67.289 94.4268 66.5276C93.839 66.3109 93.2164 66.1973 92.5879 66.192C91.6816 66.1835 90.7928 66.4351 90.0325 66.9152C89.1272 67.4607 88.3164 68.3983 88.3132 69.9458C88.3324 70.6078 88.4577 71.2628 88.6848 71.8871C88.6848 71.8871 86.1326 70.1849 86.1357 67.335C86.1357 66.1522 86.5766 64.7885 87.7952 63.2426C88.8627 61.9571 90.8261 61.2936 92.9768 61.2967ZM77.3219 49.2048C77.3219 48.8604 77.2518 48.5194 77.1155 48.2016C76.9792 47.8838 76.7795 47.5954 76.528 47.3532C76.2764 47.1109 75.978 46.9197 75.65 46.7904C75.322 46.6611 74.9709 46.5964 74.617 46.6001C72.6537 46.6001 71.9404 48.3544 71.931 49.81V55.2982C71.931 56.7232 72.6726 58.669 74.6076 58.669C75.3218 58.6715 76.0082 58.3991 76.5169 57.9112C77.0257 57.4233 77.3156 56.7594 77.3235 56.0643L77.3219 49.2048Z" fill="white"/>
<path d="M104 39.2988C103.374 39.0534 102.704 38.9381 102.032 38.9602C98.2823 38.9602 92.9591 41.9019 92.9514 47.4774L92.9358 57.3461C92.9437 57.9477 93.1355 58.5327 93.4857 59.024C93.8483 59.4946 94.3543 59.8369 94.9287 60L85 59.9846C85.6017 59.8254 86.1333 59.4736 86.5123 58.9838C86.8913 58.4941 87.0963 57.894 87.0954 57.2769L87.114 45.3346C87.1157 45.0745 87.0651 44.8166 86.9651 44.5761C86.8651 44.3356 86.7177 44.1173 86.5316 43.9338C86.1506 43.5491 85.6324 43.328 85.0885 43.3181L92.9607 41.6848V43.8799C93.7963 40.986 95.2487 35.9923 99.6399 36C103.296 36.0077 104 39.2988 104 39.2988Z" fill="white"/>
<path d="M103 59.9845C103.597 59.8237 104.124 59.4719 104.5 58.9837C104.875 58.4954 105.078 57.8978 105.078 57.2833L105.097 45.233C105.086 44.6914 104.865 44.1747 104.481 43.7905C104.097 43.4063 103.578 43.1841 103.033 43.1702L110.957 41.5238L110.932 57.2926C110.931 57.9055 111.137 58.501 111.516 58.9841C111.885 59.4752 112.407 59.8321 113 60L103 59.9845ZM105.108 37.8875C105.111 37.314 105.285 36.7543 105.608 36.279C105.931 35.8037 106.389 35.434 106.923 35.2167C107.457 34.9993 108.045 34.9439 108.61 35.0576C109.176 35.1712 109.696 35.4487 110.103 35.8551C110.51 36.2616 110.787 36.7787 110.899 37.3414C111.011 37.904 110.953 38.487 110.732 39.0169C110.511 39.5467 110.137 39.9997 109.657 40.3186C109.177 40.6376 108.613 40.8083 108.036 40.8093C107.258 40.8068 106.513 40.4978 105.964 39.95C105.415 39.4023 105.107 38.6605 105.108 37.8875Z" fill="white"/>
<path d="M124.55 59C124.366 58.9994 124.183 58.9631 124.013 58.8932C123.843 58.8233 123.689 58.7211 123.56 58.5927C123.431 58.4643 123.33 58.3122 123.262 58.1453C123.195 57.9784 123.162 57.8001 123.166 57.6207C122.863 58.047 122.458 58.3948 121.985 58.6339C121.513 58.873 120.987 58.9961 120.455 58.9924H117.408C115.972 58.9884 114.596 58.4308 113.582 57.442C112.569 56.4531 112 55.1136 112 53.7174V51.2038C112 50.5116 112.14 49.826 112.413 49.1866C112.685 48.5472 113.085 47.9664 113.59 47.4777C114.094 46.989 114.692 46.6019 115.351 46.3387C116.009 46.0755 116.715 45.9413 117.427 45.9439H120.473C121.003 45.9445 121.524 46.0674 121.994 46.3024C122.465 46.5375 122.871 46.8781 123.18 47.2959V44.1533C123.179 43.8125 123.108 43.4753 122.971 43.1615C122.835 42.8478 122.635 42.5638 122.383 42.3263C122.141 42.0819 121.849 41.8886 121.526 41.7585C121.203 41.6284 120.856 41.5643 120.506 41.5702C119.931 41.5673 119.369 41.745 118.906 42.0768C118.715 42.2147 118.557 42.3896 118.44 42.5903C118.323 42.791 118.25 43.0133 118.226 43.2428V43.3018C118.226 44.1699 118.993 44.6508 118.993 44.6508H116.778C116.778 44.6508 114.16 44.6508 114.163 42.9993C114.163 41.3237 116.629 40.9985 117.43 41L122.939 41.0076C123.735 41.0078 124.523 41.1605 125.258 41.4572C125.993 41.7538 126.661 42.1884 127.224 42.7362C127.786 43.284 128.232 43.9342 128.535 44.6496C128.839 45.3651 128.995 46.1317 128.994 46.9057L128.978 56.3927C128.98 56.9814 129.178 57.5538 129.542 58.0239C129.907 58.494 130.418 58.8365 131 59H124.55ZM123.169 55.8558L123.18 49.0911C123.18 48.7507 123.11 48.4138 122.975 48.0996C122.841 47.7855 122.643 47.5004 122.395 47.2607C122.146 47.021 121.852 46.8315 121.527 46.7031C121.203 46.5747 120.856 46.5099 120.506 46.5125C118.567 46.5125 117.862 48.2744 117.862 49.6885V55.1072C117.862 56.5137 118.595 58.4344 120.506 58.4344C121.21 58.432 121.884 58.1599 122.382 57.6772C122.881 57.1944 123.164 56.5399 123.169 55.8558Z" fill="white"/>
<path d="M19 5.03724C18.3992 5.20396 17.8705 5.55726 17.494 6.0436C17.1175 6.52994 16.9138 7.12279 16.9137 7.73227L16.8486 27.291C16.8427 27.9009 17.0416 28.4958 17.4149 28.985C17.7882 29.4741 18.3153 29.8306 18.9157 30L8.7484 29.9674C9.35594 29.8078 9.89265 29.4573 10.2755 28.9701C10.6584 28.483 10.8661 27.8863 10.8665 27.2724L10.9317 7.68262C10.9317 6.51586 9.86945 5.59114 8.67367 5.58649H7.98036C7.00561 5.58649 6.21849 5.76492 5.39798 6.34519C4.48365 7.01856 3.9764 8.0612 3.84601 9.19693C3.82057 9.42101 3.80942 9.64641 3.81262 9.87185C3.79672 14.4473 8.54645 15.476 8.54645 15.476C7.69499 16.2072 6.59233 16.5983 5.45841 16.5714C2.84582 16.5621 -0.0116592 14.649 0.00106191 11.2108C-0.00368342 10.9957 0.00747996 10.7805 0.0344582 10.5669C0.327043 7.89518 1.87266 6.48793 3.35466 5.75715C4.26168 5.32576 5.24531 5.0687 6.25188 5L19 5.03724Z" fill="white"/>
<path d="M34 21.9753C33.9962 22.5622 33.9132 23.1459 33.7532 23.7109C33.3925 24.9461 32.6378 26.0318 31.6023 26.8052C30.5668 27.5786 29.3065 27.9978 28.0105 28L18.6918 27.9698L18.7055 23.8999C18.8626 24.8734 19.3619 25.7603 20.1148 26.4036C20.8677 27.047 21.8258 27.4052 22.8194 27.4149H24.0551C26.5889 27.424 28.3442 25.5145 28.3487 24.1085V23.8394C28.3563 21.5354 25.7966 20.7794 25.7966 20.7794L23.2064 19.8723L21.6096 19.2676C19.4109 18.483 18.5104 17.1329 18.1539 15.9657C18.0416 15.5974 17.9902 15.2135 18.0015 14.8288C18.0088 13.8999 18.3188 12.9983 18.8853 12.2587C19.4409 11.5537 20.1513 10.9838 20.9624 10.5924C21.7736 10.201 22.664 9.9984 23.566 10L32.7628 10.0302L32.7491 14.1001C32.5974 13.1242 32.0998 12.234 31.3456 11.5896C30.5915 10.9452 29.6304 10.589 28.6352 10.5851L25.8316 10.576C25.342 10.575 24.8616 10.7085 24.4436 10.9615C24.1739 11.1297 23.952 11.3633 23.7987 11.6403C23.6454 11.9173 23.5658 12.2284 23.5675 12.5444C23.5634 12.9604 23.6919 13.3669 23.9346 13.7061C24.1773 14.0452 24.5218 14.2995 24.919 14.4327L24.9494 14.463L29.8876 16.2439C31.4235 16.8184 32.7475 17.9296 33.4362 19.3976C33.8063 20.2075 33.9985 21.0861 34 21.9753Z" fill="white"/>
<path d="M35.5613 6.25129C35.1743 5.87248 34.6517 5.66107 34.1079 5.66326L42.0397 4L41.9975 26.322C41.9966 26.9226 42.1909 27.5075 42.5516 27.9899C42.9123 28.4723 43.4202 28.8265 44 29L34 28.9674C34.6033 28.8026 35.1361 28.4474 35.5177 27.9555C35.8993 27.4637 36.1091 26.8619 36.1151 26.2414L36.1762 7.72681C36.1705 7.17478 35.9503 6.64621 35.5613 6.25129Z" fill="white"/>
<path d="M80 22.9718C79.9963 23.559 79.9133 24.1431 79.7532 24.7084C79.3929 25.9445 78.6383 27.0312 77.6028 27.8051C76.5672 28.579 75.3066 28.9983 74.0105 29L64.6918 28.9697L64.7055 24.899C64.8627 25.8729 65.362 26.7602 66.1149 27.4036C66.8679 28.0471 67.8259 28.4052 68.8194 28.4146H70.0551C72.5889 28.4146 74.3442 26.5116 74.3487 25.1047V24.8476C74.3487 22.5421 71.7966 21.7858 71.7966 21.7858L69.2064 20.8781L67.6096 20.2731C65.4109 19.4879 64.5104 18.1386 64.1539 16.9692C64.0416 16.6007 63.9902 16.2165 64.0015 15.8317C64.0083 14.9024 64.3178 14.0002 64.8837 13.26C65.4398 12.5547 66.1505 11.9845 66.9618 11.5929C67.7732 11.2013 68.6638 10.9985 69.566 11L78.7628 11.0288L78.7491 15.101C78.5974 14.1246 78.0997 13.2341 77.3455 12.5896C76.5913 11.9451 75.6302 11.589 74.6352 11.5854L71.8316 11.5764C71.3421 11.5747 70.8616 11.7077 70.4436 11.9606C70.1731 12.1283 69.9502 12.3618 69.7961 12.639C69.642 12.9161 69.5617 13.2278 69.5629 13.5444C69.5587 13.9608 69.6872 14.3678 69.9299 14.7074C70.1726 15.047 70.5172 15.3018 70.9144 15.4353L70.9449 15.4656L75.8831 17.2476C77.4189 17.8209 78.743 18.9328 79.4317 20.4016C79.802 21.2088 79.9957 22.0848 80 22.9718Z" fill="white"/>
<path d="M56.6437 29.7167C56.4625 29.7236 56.2819 29.6932 56.1122 29.6272C55.9426 29.5612 55.7874 29.4609 55.6557 29.3322C55.524 29.2035 55.4185 29.049 55.3453 28.8777C55.2721 28.7064 55.2326 28.5218 55.2293 28.3345C54.9486 28.7908 54.5645 29.1697 54.1103 29.4383C53.656 29.7069 53.1453 29.8572 52.6223 29.8762L49.6283 29.9962C48.2172 30.0501 46.8429 29.5236 45.807 28.5322C44.7711 27.5408 44.158 26.1655 44.1023 24.7078L44.0045 22.0841C43.9758 21.3617 44.0856 20.6406 44.3275 19.9622C44.5694 19.2838 44.9386 18.6614 45.414 18.1308C45.8894 17.6002 46.4616 17.1719 47.0977 16.8704C47.7338 16.5689 48.4213 16.4002 49.1207 16.3739L52.1146 16.2539C52.6341 16.2332 53.1509 16.3403 53.6225 16.5663C54.0941 16.7923 54.507 17.1308 54.8272 17.5539L54.7048 14.2747C54.6902 13.9192 54.607 13.5703 54.4599 13.2486C54.3129 12.9269 54.105 12.6388 53.8486 12.4013C53.5999 12.1566 53.3051 11.9676 52.9826 11.8458C52.66 11.7241 52.3167 11.6722 51.9739 11.6936C51.4082 11.714 50.864 11.9223 50.4219 12.2875C50.2424 12.4399 50.0954 12.629 49.9901 12.8429C49.8848 13.0569 49.8236 13.2911 49.8103 13.5307V13.5939C49.8439 14.499 50.6192 14.9697 50.6192 14.9697L48.4418 15.0566C48.4418 15.0566 45.8714 15.1592 45.8072 13.4406C45.7415 11.6905 48.1482 11.2513 48.9342 11.2197L54.347 11.0049C55.1295 10.9726 55.9105 11.1 56.6452 11.38C57.3799 11.66 58.0539 12.0869 58.6286 12.6365C59.2033 13.186 59.6674 13.8473 59.9943 14.5824C60.3212 15.3175 60.5045 16.112 60.5336 16.9205L60.9037 26.8229C60.9297 27.4377 61.1481 28.0272 61.5261 28.5029C61.9041 28.9786 62.4213 29.3147 63 29.4608L56.6437 29.7167ZM55.1605 26.4911L54.8975 19.432C54.8834 19.0769 54.8014 18.7282 54.6563 18.406C54.5112 18.0837 54.3058 17.7943 54.0519 17.5544C53.7981 17.3145 53.5009 17.1289 53.1773 17.0081C52.8537 16.8874 52.5102 16.834 52.1666 16.851C50.2614 16.9268 49.6345 18.797 49.6895 20.2644L49.9005 25.9193C49.9556 27.3868 50.7553 29.3565 52.6299 29.2823C53.3229 29.2563 53.9779 28.9483 54.452 28.4254C54.926 27.9026 55.1807 27.2072 55.1605 26.4911Z" fill="white"/>
<path d="M150 55.4641C150 59.2431 148.06 63.1417 145.719 64.89C143.884 66.2703 141.385 67.0031 138.922 67C134.909 67 131.088 65.022 131 60.9044V60.7197C131 55.9873 135.527 55.4113 137.802 55.4144C138.225 55.4128 138.647 55.434 139.067 55.4781C137.643 56.0898 135.808 57.8691 135.805 60.1437V60.3269C135.896 63.2163 137.976 65.9535 140.884 65.9582C144.581 65.9582 147.019 63.0796 147.025 59.0848C147.024 58.6124 146.993 58.1405 146.933 57.6719C146.433 54.1009 141.223 52.3775 141.184 52.3775C141.146 52.3775 137.773 51.1432 137.773 51.1432L136.098 50.5222C133.793 49.7195 132.847 48.3361 132.471 47.1375C132.354 46.7585 132.3 46.3638 132.311 45.9683C132.317 45.0152 132.64 44.0895 133.231 43.3289C133.812 42.6044 134.556 42.0182 135.405 41.6147C136.255 41.2112 137.187 41.001 138.133 41L147.771 41.014V45.1936C147.602 44.1887 147.071 43.2749 146.274 42.6151C145.476 41.9553 144.464 41.5926 143.416 41.5915H140.509C139.981 41.5921 139.465 41.7409 139.022 42.0201C138.743 42.1886 138.511 42.4235 138.351 42.7027C138.19 42.9819 138.105 43.2962 138.104 43.6161C138.105 44.0465 138.245 44.4657 138.506 44.8138C138.766 45.1618 139.133 45.4208 139.554 45.5538L139.586 45.5848L144.766 47.4061C145.345 47.6319 145.895 47.921 146.407 48.2678C148.997 50.03 150.005 52.73 150 55.4641Z" fill="white"/>
<path d="M9.00788 32.1118C24.2554 31.2718 40.187 31.0828 55.5039 31C70.8287 31.0086 86.743 31.1235 102 31.8882C86.7524 32.7332 70.8208 32.9209 55.5039 33C40.1792 32.9876 24.2649 32.8765 9 32.1118H9.00788Z" fill="white"/>
</g>
<defs>
<clipPath id="clip0_119_1667">
<rect width="151" height="78" fill="white"/>
</clipPath>
</defs>
</svg>
